# BudgetSensors CS-20NG XYZ calibration nanogrid (SiO2 on Si).
# 1 x 1 mm area: square pillars 5 um on a side, 10 um pitch, over 20 x 20 um.
# Step height 20 nm (datasheet: ~20 nm, exact value on the box label).
# Hole/pillar width taken at half the pitch (not published by the vendor).
# Lower surface at y = 0, 1 um support slab below. Units: nanometres, +Y up.
# Generated by make_cs20ng_obj.py
#
# vertices: 66   triangles: 128

o cs20ng_squares_20um
v 0.0000 20.0000 0.0000
v 0.0000 20.0000 5000.0000
v 5000.0000 20.0000 5000.0000
v 5000.0000 20.0000 0.0000
v 5000.0000 0.0000 0.0000
v 5000.0000 0.0000 5000.0000
v 0.0000 0.0000 5000.0000
v 0.0000 0.0000 10000.0000
v 5000.0000 0.0000 10000.0000
v 5000.0000 20.0000 10000.0000
v 0.0000 20.0000 10000.0000
v 0.0000 20.0000 15000.0000
v 5000.0000 20.0000 15000.0000
v 5000.0000 0.0000 15000.0000
v 0.0000 0.0000 15000.0000
v 0.0000 0.0000 20000.0000
v 5000.0000 0.0000 20000.0000
v 10000.0000 0.0000 5000.0000
v 10000.0000 0.0000 0.0000
v 10000.0000 20.0000 5000.0000
v 10000.0000 20.0000 0.0000
v 10000.0000 0.0000 10000.0000
v 10000.0000 0.0000 15000.0000
v 10000.0000 20.0000 15000.0000
v 10000.0000 20.0000 10000.0000
v 10000.0000 0.0000 20000.0000
v 15000.0000 20.0000 5000.0000
v 15000.0000 20.0000 0.0000
v 15000.0000 0.0000 0.0000
v 15000.0000 0.0000 5000.0000
v 15000.0000 0.0000 10000.0000
v 15000.0000 20.0000 10000.0000
v 15000.0000 20.0000 15000.0000
v 15000.0000 0.0000 15000.0000
v 15000.0000 0.0000 20000.0000
v 20000.0000 0.0000 5000.0000
v 20000.0000 0.0000 0.0000
v 20000.0000 0.0000 10000.0000
v 20000.0000 0.0000 15000.0000
v 20000.0000 0.0000 20000.0000
v 0.0000 -1000.0000 0.0000
v 0.0000 -1000.0000 5000.0000
v 0.0000 0.0000 0.0000
v 5000.0000 -1000.0000 0.0000
v 5000.0000 -1000.0000 5000.0000
v 0.0000 -1000.0000 10000.0000
v 5000.0000 -1000.0000 10000.0000
v 0.0000 -1000.0000 15000.0000
v 5000.0000 -1000.0000 15000.0000
v 0.0000 -1000.0000 20000.0000
v 5000.0000 -1000.0000 20000.0000
v 10000.0000 -1000.0000 0.0000
v 10000.0000 -1000.0000 5000.0000
v 10000.0000 -1000.0000 10000.0000
v 10000.0000 -1000.0000 15000.0000
v 10000.0000 -1000.0000 20000.0000
v 15000.0000 -1000.0000 0.0000
v 15000.0000 -1000.0000 5000.0000
v 15000.0000 -1000.0000 10000.0000
v 15000.0000 -1000.0000 15000.0000
v 15000.0000 -1000.0000 20000.0000
v 20000.0000 -1000.0000 5000.0000
v 20000.0000 -1000.0000 0.0000
v 20000.0000 -1000.0000 10000.0000
v 20000.0000 -1000.0000 15000.0000
v 20000.0000 -1000.0000 20000.0000
f 1 2 3
f 1 3 4
f 5 4 3
f 5 3 6
f 7 6 3
f 7 3 2
f 7 8 9
f 7 9 6
f 8 11 10
f 8 10 9
f 11 12 13
f 11 13 10
f 9 10 13
f 9 13 14
f 15 14 13
f 15 13 12
f 15 16 17
f 15 17 14
f 5 6 18
f 5 18 19
f 19 18 20
f 19 20 21
f 6 9 22
f 6 22 18
f 9 14 23
f 9 23 22
f 22 23 24
f 22 24 25
f 14 17 26
f 14 26 23
f 21 20 27
f 21 27 28
f 29 28 27
f 29 27 30
f 18 30 27
f 18 27 20
f 18 22 31
f 18 31 30
f 22 25 32
f 22 32 31
f 25 24 33
f 25 33 32
f 31 32 33
f 31 33 34
f 23 34 33
f 23 33 24
f 23 26 35
f 23 35 34
f 29 30 36
f 29 36 37
f 30 31 38
f 30 38 36
f 31 34 39
f 31 39 38
f 34 35 40
f 34 40 39
f 41 42 7
f 41 7 43
f 44 41 43
f 44 43 5
f 43 7 2
f 43 2 1
f 5 43 1
f 5 1 4
f 41 44 45
f 41 45 42
f 42 46 8
f 42 8 7
f 42 45 47
f 42 47 46
f 46 48 15
f 46 15 8
f 8 15 12
f 8 12 11
f 46 47 49
f 46 49 48
f 48 50 16
f 48 16 15
f 50 51 17
f 50 17 16
f 48 49 51
f 48 51 50
f 52 44 5
f 52 5 19
f 44 52 53
f 44 53 45
f 45 53 54
f 45 54 47
f 47 54 55
f 47 55 49
f 51 56 26
f 51 26 17
f 49 55 56
f 49 56 51
f 57 52 19
f 57 19 29
f 29 19 21
f 29 21 28
f 52 57 58
f 52 58 53
f 53 58 59
f 53 59 54
f 54 59 60
f 54 60 55
f 56 61 35
f 56 35 26
f 55 60 61
f 55 61 56
f 62 63 37
f 62 37 36
f 63 57 29
f 63 29 37
f 57 63 62
f 57 62 58
f 64 62 36
f 64 36 38
f 58 62 64
f 58 64 59
f 65 64 38
f 65 38 39
f 59 64 65
f 59 65 60
f 66 65 39
f 66 39 40
f 61 66 40
f 61 40 35
f 60 65 66
f 60 66 61
