# Bruker VGRP SPM calibration grating (VGRP-15M and VGRP-GS are the same
# artifact; they differ only in the mount, 15 mm disc vs glass slide).
# One 10 µm unit cell (1 pit), tileable.
# 2D array of square pits: 10 µm pitch, 5 µm pits, 180 nm deep, vertical walls.
# Pit floor at y = 0, plateau at y = 180 nm, 1 µm support slab below.
# Pt coating not modelled (thin and conformal). Units: nanometres, +Y up.
# Generated by make_vgrp_obj.py
#
# vertices: 26   triangles: 48

o vgrp_cell_10um
v 0.0000 0.0000 0.0000
v 0.0000 0.0000 5000.0000
v 5000.0000 0.0000 5000.0000
v 5000.0000 0.0000 0.0000
v 5000.0000 180.0000 5000.0000
v 5000.0000 180.0000 0.0000
v 0.0000 180.0000 5000.0000
v 0.0000 180.0000 10000.0000
v 5000.0000 180.0000 10000.0000
v 10000.0000 180.0000 5000.0000
v 10000.0000 180.0000 0.0000
v 10000.0000 180.0000 10000.0000
v 0.0000 -1000.0000 0.0000
v 0.0000 -1000.0000 5000.0000
v 5000.0000 -1000.0000 0.0000
v 0.0000 -1000.0000 10000.0000
v 0.0000 0.0000 10000.0000
v 5000.0000 -1000.0000 10000.0000
v 5000.0000 0.0000 10000.0000
v 10000.0000 -1000.0000 5000.0000
v 10000.0000 -1000.0000 0.0000
v 10000.0000 0.0000 0.0000
v 10000.0000 0.0000 5000.0000
v 10000.0000 -1000.0000 10000.0000
v 10000.0000 0.0000 10000.0000
v 5000.0000 -1000.0000 5000.0000
f 1 2 3
f 1 3 4
f 4 3 5
f 4 5 6
f 2 7 5
f 2 5 3
f 7 8 9
f 7 9 5
f 6 5 10
f 6 10 11
f 5 9 12
f 5 12 10
f 13 14 2
f 13 2 1
f 15 13 1
f 15 1 4
f 14 16 17
f 14 17 2
f 16 18 19
f 16 19 17
f 2 17 8
f 2 8 7
f 17 19 9
f 17 9 8
f 20 21 22
f 20 22 23
f 21 15 4
f 21 4 22
f 23 22 11
f 23 11 10
f 22 4 6
f 22 6 11
f 24 20 23
f 24 23 25
f 18 24 25
f 18 25 19
f 25 23 10
f 25 10 12
f 19 25 12
f 19 12 9
f 13 15 26
f 13 26 14
f 14 26 18
f 14 18 16
f 15 21 20
f 15 20 26
f 26 20 24
f 26 24 18
