# Bruker VGRP SPM calibration grating (VGRP-15M and VGRP-GS are the same
# artifact; they differ only in the mount, 15 mm disc vs glass slide).
# 20 x 20 µm patch (2 x 2 pitch cells, 4 pits) — the field afm-3d.html shows at 20 µm.
# 2D array of square pits: 10 µm pitch, 5 µm pits, 180 nm deep, vertical walls.
# Pit floor at y = 0, plateau at y = 180 nm, 1 µm support slab below.
# Pt coating not modelled (thin and conformal). Units: nanometres, +Y up.
# Generated by make_vgrp_obj.py
#
# vertices: 74   triangles: 144

o vgrp_grating_20um
v 0.0000 0.0000 0.0000
v 0.0000 0.0000 5000.0000
v 5000.0000 0.0000 5000.0000
v 5000.0000 0.0000 0.0000
v 5000.0000 180.0000 5000.0000
v 5000.0000 180.0000 0.0000
v 0.0000 180.0000 5000.0000
v 0.0000 180.0000 10000.0000
v 5000.0000 180.0000 10000.0000
v 0.0000 0.0000 10000.0000
v 5000.0000 0.0000 10000.0000
v 0.0000 0.0000 15000.0000
v 5000.0000 0.0000 15000.0000
v 5000.0000 180.0000 15000.0000
v 0.0000 180.0000 15000.0000
v 0.0000 180.0000 20000.0000
v 5000.0000 180.0000 20000.0000
v 10000.0000 180.0000 5000.0000
v 10000.0000 180.0000 0.0000
v 10000.0000 0.0000 0.0000
v 10000.0000 0.0000 5000.0000
v 10000.0000 180.0000 10000.0000
v 10000.0000 180.0000 15000.0000
v 10000.0000 0.0000 10000.0000
v 10000.0000 0.0000 15000.0000
v 10000.0000 180.0000 20000.0000
v 15000.0000 0.0000 5000.0000
v 15000.0000 0.0000 0.0000
v 15000.0000 180.0000 5000.0000
v 15000.0000 180.0000 0.0000
v 15000.0000 180.0000 10000.0000
v 15000.0000 0.0000 10000.0000
v 15000.0000 0.0000 15000.0000
v 15000.0000 180.0000 15000.0000
v 15000.0000 180.0000 20000.0000
v 20000.0000 180.0000 5000.0000
v 20000.0000 180.0000 0.0000
v 20000.0000 180.0000 10000.0000
v 20000.0000 180.0000 15000.0000
v 20000.0000 180.0000 20000.0000
v 0.0000 -1000.0000 0.0000
v 0.0000 -1000.0000 5000.0000
v 5000.0000 -1000.0000 0.0000
v 0.0000 -1000.0000 10000.0000
v 0.0000 -1000.0000 15000.0000
v 0.0000 -1000.0000 20000.0000
v 0.0000 0.0000 20000.0000
v 5000.0000 -1000.0000 20000.0000
v 5000.0000 0.0000 20000.0000
v 10000.0000 -1000.0000 0.0000
v 10000.0000 -1000.0000 20000.0000
v 10000.0000 0.0000 20000.0000
v 15000.0000 -1000.0000 0.0000
v 15000.0000 -1000.0000 20000.0000
v 15000.0000 0.0000 20000.0000
v 20000.0000 -1000.0000 5000.0000
v 20000.0000 -1000.0000 0.0000
v 20000.0000 0.0000 0.0000
v 20000.0000 0.0000 5000.0000
v 20000.0000 -1000.0000 10000.0000
v 20000.0000 0.0000 10000.0000
v 20000.0000 -1000.0000 15000.0000
v 20000.0000 0.0000 15000.0000
v 20000.0000 -1000.0000 20000.0000
v 20000.0000 0.0000 20000.0000
v 5000.0000 -1000.0000 5000.0000
v 5000.0000 -1000.0000 10000.0000
v 5000.0000 -1000.0000 15000.0000
v 10000.0000 -1000.0000 5000.0000
v 10000.0000 -1000.0000 10000.0000
v 10000.0000 -1000.0000 15000.0000
v 15000.0000 -1000.0000 5000.0000
v 15000.0000 -1000.0000 10000.0000
v 15000.0000 -1000.0000 15000.0000
f 1 2 3
f 1 3 4
f 4 3 5
f 4 5 6
f 2 7 5
f 2 5 3
f 7 8 9
f 7 9 5
f 10 11 9
f 10 9 8
f 10 12 13
f 10 13 11
f 11 13 14
f 11 14 9
f 12 15 14
f 12 14 13
f 15 16 17
f 15 17 14
f 6 5 18
f 6 18 19
f 20 19 18
f 20 18 21
f 5 9 22
f 5 22 18
f 9 14 23
f 9 23 22
f 24 22 23
f 24 23 25
f 14 17 26
f 14 26 23
f 20 21 27
f 20 27 28
f 28 27 29
f 28 29 30
f 21 18 29
f 21 29 27
f 18 22 31
f 18 31 29
f 24 32 31
f 24 31 22
f 24 25 33
f 24 33 32
f 32 33 34
f 32 34 31
f 25 23 34
f 25 34 33
f 23 26 35
f 23 35 34
f 30 29 36
f 30 36 37
f 29 31 38
f 29 38 36
f 31 34 39
f 31 39 38
f 34 35 40
f 34 40 39
f 41 42 2
f 41 2 1
f 43 41 1
f 43 1 4
f 42 44 10
f 42 10 2
f 2 10 8
f 2 8 7
f 44 45 12
f 44 12 10
f 45 46 47
f 45 47 12
f 46 48 49
f 46 49 47
f 12 47 16
f 12 16 15
f 47 49 17
f 47 17 16
f 50 43 4
f 50 4 20
f 20 4 6
f 20 6 19
f 48 51 52
f 48 52 49
f 49 52 26
f 49 26 17
f 53 50 20
f 53 20 28
f 51 54 55
f 51 55 52
f 52 55 35
f 52 35 26
f 56 57 58
f 56 58 59
f 57 53 28
f 57 28 58
f 59 58 37
f 59 37 36
f 58 28 30
f 58 30 37
f 60 56 59
f 60 59 61
f 61 59 36
f 61 36 38
f 62 60 61
f 62 61 63
f 63 61 38
f 63 38 39
f 64 62 63
f 64 63 65
f 54 64 65
f 54 65 55
f 65 63 39
f 65 39 40
f 55 65 40
f 55 40 35
f 41 43 66
f 41 66 42
f 42 66 67
f 42 67 44
f 44 67 68
f 44 68 45
f 45 68 48
f 45 48 46
f 43 50 69
f 43 69 66
f 66 69 70
f 66 70 67
f 67 70 71
f 67 71 68
f 68 71 51
f 68 51 48
f 50 53 72
f 50 72 69
f 69 72 73
f 69 73 70
f 70 73 74
f 70 74 71
f 71 74 54
f 71 54 51
f 53 57 56
f 53 56 72
f 72 56 60
f 72 60 73
f 73 60 62
f 73 62 74
f 74 62 64
f 74 64 54
