# Damaged AFM tip: split/double apex, asymmetric wear, tilt, and fractured flank.
# Coordinates are nanometres; Y is height.
o tip_worn_tilted_asymmetric
v 0.00000 10.25930 0.00000
v 0.00000 10.25930 0.00000
v 0.00000 10.25930 0.00000
v 0.00000 10.25930 0.00000
v 0.00000 10.25930 0.00000
v 0.00000 10.25930 0.00000
v 0.00000 10.25930 0.00000
v 0.00000 10.25930 0.00000
v 0.00000 10.25930 0.00000
v 0.00000 10.25930 0.00000
v 0.00000 10.25930 0.00000
v 0.00000 10.25930 0.00000
v 0.00000 10.25930 0.00000
v -0.00000 10.25930 0.00000
v -0.00000 10.25930 0.00000
v -0.00000 10.25930 0.00000
v -0.00000 10.25930 0.00000
v -0.00000 10.25930 0.00000
v -0.00000 10.25930 0.00000
v -0.00000 10.25930 0.00000
v -0.00000 10.25930 0.00000
v -0.00000 10.25930 0.00000
v -0.00000 10.25930 0.00000
v -0.00000 10.25930 0.00000
v -0.00000 10.25930 0.00000
v -0.00000 10.25930 -0.00000
v -0.00000 10.25930 -0.00000
v -0.00000 10.25930 -0.00000
v -0.00000 10.25930 -0.00000
v -0.00000 10.25930 -0.00000
v -0.00000 10.25930 -0.00000
v -0.00000 10.25930 -0.00000
v -0.00000 10.25930 -0.00000
v -0.00000 10.25930 -0.00000
v -0.00000 10.25930 -0.00000
v -0.00000 10.25930 -0.00000
v -0.00000 10.25930 -0.00000
v 0.00000 10.25930 -0.00000
v 0.00000 10.25930 -0.00000
v 0.00000 10.25930 -0.00000
v 0.00000 10.25930 -0.00000
v 0.00000 10.25930 -0.00000
v 0.00000 10.25930 -0.00000
v 0.00000 10.25930 -0.00000
v 0.00000 10.25930 -0.00000
v 0.00000 10.25930 -0.00000
v 0.00000 10.25930 -0.00000
v 0.00000 10.25930 -0.00000
v 2.11111 10.85087 0.00000
v 2.09305 10.79396 0.27556
v 2.03918 10.75231 0.54640
v 1.95041 10.72655 0.80789
v 1.82828 10.71702 1.05556
v 1.67486 10.72381 1.28516
v 1.49278 10.74670 1.49278
v 1.28516 10.78523 1.67486
v 1.05556 10.83865 1.82828
v 0.80789 10.90594 1.95041
v 0.54640 10.92989 2.03918
v 0.27556 10.70841 2.09305
v 0.00000 10.47930 2.11111
v -0.27556 10.24584 2.09305
v -0.54640 10.01140 2.03918
v -0.80789 9.77939 1.95041
v -1.05556 9.55338 1.82828
v -1.28516 9.33706 1.67486
v -1.49278 9.13427 1.49278
v -1.67486 8.94900 1.28516
v -1.82828 8.78530 1.05556
v -1.95041 8.64713 0.80789
v -2.03918 8.53827 0.54640
v -2.09305 8.46201 0.27556
v -2.11111 8.42101 0.00000
v -2.09305 8.41701 -0.27556
v -2.03918 8.45071 -0.54640
v -1.95041 8.52167 -0.80789
v -1.82828 8.62826 -1.05556
v -1.67486 8.76775 -1.28516
v -1.49278 8.93649 -1.49278
v -1.28516 9.13009 -1.67486
v -1.05556 9.34366 -1.82828
v -0.80789 9.57211 -1.95041
v -0.54640 9.81030 -2.03918
v -0.27556 10.05332 -2.09305
v -0.00000 10.29655 -2.11111
v 0.27556 10.53582 -2.09305
v 0.54640 10.76741 -2.03918
v 0.80789 10.98807 -1.95041
v 1.05556 11.19496 -1.82828
v 1.28516 11.38559 -1.67486
v 1.49278 11.44007 -1.49278
v 1.67486 11.32136 -1.28516
v 1.82828 11.20802 -1.05556
v 1.95041 11.10235 -0.80789
v 2.03918 11.00643 -0.54640
v 2.09305 10.92210 -0.27556
v 4.22222 10.14098 0.00000
v 4.18610 10.01930 0.55111
v 4.07835 9.93256 1.09279
v 3.90082 9.88235 1.61577
v 3.65655 9.86913 2.11111
v 3.34971 9.89230 2.57033
v 2.98556 9.95037 2.98556
v 2.57033 10.04117 3.34971
v 2.11111 10.16206 3.65655
v 1.61577 10.31009 3.90082
v 1.09279 10.48196 4.07835
v 0.55111 10.67405 4.18610
v 0.00000 10.88233 4.22222
v -0.55111 10.47056 4.18610
v -1.09279 10.02003 4.07835
v -1.61577 9.56731 3.90082
v -2.11111 9.11739 3.65655
v -2.57033 8.67604 3.34971
v -2.98556 8.25023 2.98556
v -3.34971 7.84840 2.57033
v -3.65655 7.48060 2.11111
v -3.90082 7.15829 1.61577
v -4.07835 6.89386 1.09279
v -4.18610 6.69963 0.55111
v -4.22222 6.58651 0.00000
v -4.18610 6.56252 -0.55111
v -4.07835 6.63148 -1.09279
v -3.90082 6.79224 -1.61577
v -3.65655 7.03883 -2.11111
v -3.34971 7.36124 -2.57033
v -2.98556 7.74670 -2.98556
v -2.57033 8.18105 -3.34971
v -2.11111 8.64987 -3.65655
v -1.61577 9.13941 -3.90082
v -1.09279 9.63720 -4.07835
v -0.55111 10.13243 -4.18610
v -0.00000 10.61607 -4.22222
v 0.55111 11.08096 -4.18610
v 1.09279 11.52154 -4.07835
v 1.61577 11.93370 -3.90082
v 2.11111 11.90961 -3.65655
v 2.57033 11.65818 -3.34971
v 2.98556 11.40422 -2.98556
v 3.34971 11.15358 -2.57033
v 3.65655 10.91199 -2.11111
v 3.90082 10.68497 -1.61577
v 4.07835 10.47771 -1.09279
v 4.18610 10.29497 -0.55111
v 6.33333 9.47385 0.00000
v 6.27915 9.27135 0.82667
v 6.11753 9.13112 1.63919
v 5.85124 9.05764 2.42366
v 5.48483 9.05107 3.16667
v 5.02457 9.10757 3.85549
v 4.47834 9.22064 4.47834
v 3.85549 9.38290 5.02457
v 3.16667 9.58736 5.48483
v 2.42366 9.82793 5.85124
v 1.63919 10.09926 6.11753
v 0.82667 10.39624 6.27915
v 0.00000 10.71344 6.33333
v -0.82667 10.90630 6.27915
v -1.63919 10.26968 6.11753
v -2.42366 9.62276 5.85124
v -3.16667 8.96883 5.48483
v -3.85549 8.31241 5.02457
v -4.47834 7.66032 4.47834
v -5.02457 7.02288 3.85549
v -5.48483 6.41501 3.16667
v -5.85124 5.85710 2.42366
v -6.11753 5.37535 1.63919
v -6.27915 5.00071 0.82667
v -6.33333 4.76536 0.00000
v -6.27915 4.69614 -0.82667
v -6.11753 4.80666 -1.63919
v -5.85124 5.09265 -2.42366
v -5.48483 5.53371 -3.16667
v -5.02457 6.09998 -3.85549
v -4.47834 6.75897 -4.47834
v -3.85549 7.47991 -5.02457
v -3.16667 8.23564 -5.48483
v -2.42366 9.00314 -5.85124
v -1.63919 9.76352 -6.11753
v -0.82667 10.50192 -6.27915
v -0.00000 11.20719 -6.33333
v 0.82667 11.87163 -6.27915
v 1.63919 12.49041 -6.11753
v 2.42366 12.63427 -5.85124
v 3.16667 12.27146 -5.48483
v 3.85549 11.89155 -5.02457
v 4.47834 11.50302 -4.47834
v 5.02457 11.11437 -3.85549
v 5.48483 10.73405 -3.16667
v 5.85124 10.37064 -2.42366
v 6.11753 10.03311 -1.63919
v 6.27915 9.73091 -0.82667
v 8.44444 8.87541 0.00000
v 8.37220 8.56137 1.10222
v 8.15671 8.34944 2.18558
v 7.80165 8.25385 3.23155
v 7.31310 8.27352 4.22222
v 6.69943 8.39290 5.14065
v 5.97112 8.59040 5.97112
v 5.14065 8.84657 6.69943
v 4.22222 9.14769 7.31310
v 3.23155 9.48533 7.80165
v 2.18558 9.85429 8.15671
v 1.10222 10.25042 8.37220
v 0.00000 10.66893 8.44444
v -1.10222 11.10341 8.37220
v -2.18558 10.73067 8.15671
v -3.23155 9.92551 7.80165
v -4.22222 9.10198 7.31310
v -5.14065 8.26009 6.69943
v -5.97112 7.40250 5.97112
v -6.69943 6.53636 5.14065
v -7.31310 5.67552 4.22222
v -7.80165 4.84326 3.23155
v -8.15671 4.07633 2.18558
v -8.37220 3.43030 1.10222
v -8.44444 2.98241 0.00000
v -8.37220 2.81845 -1.10222
v -8.15671 2.98975 -2.18558
v -7.80165 3.47476 -3.23155
v -7.31310 4.19937 -4.22222
v -6.69943 5.08413 -5.14065
v -5.97112 6.06612 -5.97112
v -5.14065 7.09890 -6.69943
v -4.22222 8.14746 -7.31310
v -3.23155 9.18461 -7.80165
v -2.18558 10.18921 -8.15671
v -1.10222 11.14544 -8.37220
v -0.00000 12.04256 -8.44444
v 1.10222 12.87452 -8.37220
v 2.18558 13.63924 -8.15671
v 3.23155 13.23927 -7.80165
v 4.22222 12.76837 -7.31310
v 5.14065 12.27136 -6.69943
v 5.97112 11.75791 -5.97112
v 6.69943 11.23682 -5.14065
v 7.31310 10.71664 -4.22222
v 7.80165 10.20689 -3.23155
v 8.15671 9.71930 -2.18558
v 8.37220 9.26903 -1.10222
v 10.55556 8.39481 0.00000
v 10.46525 7.91375 1.37778
v 10.19588 7.59033 2.73198
v 9.75206 7.47461 4.03944
v 9.14138 7.56118 5.27778
v 8.37429 7.79329 6.42582
v 7.46390 8.11122 7.46390
v 6.42582 8.47777 8.37429
v 5.27778 8.87621 9.14138
v 4.03944 9.30170 9.75206
v 2.73198 9.75432 10.19588
v 1.37778 10.23445 10.46525
v 0.00000 10.74008 10.55556
v -1.37778 11.26549 10.46525
v -2.73198 11.36723 10.19588
v -4.03944 10.44218 9.75206
v -5.27778 9.49008 9.14138
v -6.42582 8.50500 8.37429
v -7.46390 7.48342 7.46390
v -8.37429 6.42621 6.42582
v -9.14138 5.34060 5.27778
v -9.75206 4.24245 4.03944
v -10.19588 3.16073 2.73198
v -10.46525 2.14945 1.37778
v -10.55556 1.32384 0.00000
v -10.46525 0.93184 -1.37778
v -10.19588 1.23196 -2.73198
v -9.75206 2.08295 -4.03944
v -9.14138 3.20540 -5.27778
v -8.37429 4.45433 -6.42582
v -7.46390 5.76211 -7.46390
v -6.42582 7.08798 -8.37429
v -5.27778 8.40102 -9.14138
v -4.03944 9.67560 -9.75206
v -2.73198 10.89072 -10.19588
v -1.37778 12.03073 -10.46525
v -0.00000 13.08597 -10.55556
v 1.37778 14.05300 -10.46525
v 2.73198 14.47207 -10.19588
v 4.03944 13.95512 -9.75206
v 5.27778 13.39491 -9.14138
v 6.42582 12.80402 -8.37429
v 7.46390 12.19084 -7.46390
v 8.37429 11.55948 -6.42582
v 9.14138 10.91278 -5.27778
v 9.75206 10.25668 -4.03944
v 10.19588 9.60344 -2.73198
v 10.46525 8.97294 -1.37778
v 12.66667 8.12324 0.00000
v 12.55830 7.39190 1.65333
v 12.23506 6.86326 3.27837
v 11.70247 6.73311 4.84732
v 10.96966 6.98011 6.33333
v 10.04914 7.39360 7.71098
v 8.95669 7.85309 8.95669
v 7.71098 8.32161 10.04914
v 6.33333 8.79569 10.96966
v 4.84732 9.28343 11.70247
v 3.27837 9.79496 12.23506
v 1.65333 10.33750 12.55830
v 0.00000 10.91272 12.66667
v -1.65333 11.51559 12.55830
v -3.27837 12.13469 12.23506
v -4.84732 11.13500 11.70247
v -6.33333 10.09448 10.96966
v -7.71098 9.01096 10.04914
v -8.95669 7.87522 8.95669
v -10.04914 6.68297 7.71098
v -10.96966 5.43640 6.33333
v -11.70247 4.14477 4.84732
v -12.23506 2.82410 3.27837
v -12.55830 1.49652 1.65333
v -12.66667 0.19370 0.00000
v -12.55830 0.00000 -1.65333
v -12.23506 0.00000 -3.27837
v -11.70247 1.29861 -4.84732
v -10.96966 2.79245 -6.33333
v -10.04914 4.33057 -7.71098
v -8.95669 5.89058 -8.95669
v -7.71098 7.44723 -10.04914
v -6.33333 8.97326 -10.96966
v -4.84732 10.44190 -11.70247
v -3.27837 11.82969 -12.23506
v -1.65333 13.11905 -12.55830
v -0.00000 14.30021 -12.66667
v 1.65333 15.37228 -12.55830
v 3.27837 15.34948 -12.23506
v 4.84732 14.76408 -11.70247
v 6.33333 14.13802 -10.96966
v 7.71098 13.48883 -10.04914
v 8.95669 12.82103 -8.95669
v 10.04914 12.12451 -7.71098
v 10.96966 11.38372 -6.33333
v 11.70247 10.59323 -4.84732
v 12.23506 9.76679 -3.27837
v 12.55830 8.93226 -1.65333
v 14.77778 8.19840 0.00000
v 14.65135 7.18012 1.92889
v 14.27424 6.23834 3.82477
v 13.65289 6.11915 5.65521
v 12.79793 6.71413 7.38889
v 11.72400 7.32074 8.99614
v 10.44947 7.88060 10.44947
v 8.99614 8.40276 11.72400
v 7.38889 8.90853 12.79793
v 5.65521 9.42134 13.65289
v 3.82477 9.96159 14.27424
v 1.92889 10.54296 14.65135
v 0.00000 11.17014 14.77778
v -1.92889 11.83795 14.65135
v -3.82477 12.53209 14.27424
v -5.65521 11.96840 13.65289
v -7.38889 10.87446 12.79793
v -8.99614 9.73229 11.72400
v -10.44947 8.52826 10.44947
v -11.72400 7.25586 8.99614
v -12.79793 5.91804 7.38889
v -13.65289 4.52882 5.65521
v -14.27424 3.11480 3.82477
v -14.65135 1.72097 1.92889
v -14.77778 0.44453 0.00000
v -14.65135 0.00000 -1.92889
v -14.27424 0.18391 -3.82477
v -13.65289 1.50332 -5.65521
v -12.79793 3.05369 -7.38889
v -11.72400 4.70712 -8.99614
v -10.44947 6.41166 -10.44947
v -8.99614 8.12676 -11.72400
v -7.38889 9.81378 -12.79793
v -5.65521 11.43650 -13.65289
v -3.82477 12.96387 -14.27424
v -1.92889 14.37316 -14.65135
v -0.00000 15.65251 -14.77778
v 1.92889 16.80279 -14.65135
v 3.82477 16.28814 -14.27424
v 5.65521 15.64328 -13.65289
v 7.38889 14.97312 -12.79793
v 8.99614 14.30895 -11.72400
v 10.44947 13.65309 -10.44947
v 11.72400 12.96689 -8.99614
v 12.79793 12.18974 -7.38889
v 13.65289 11.28674 -5.65521
v 14.27424 10.28178 -3.82477
v 14.65135 9.23649 -1.92889
v 16.88889 8.71321 0.00000
v 16.74440 7.58619 2.20444
v 16.31341 6.56444 4.37117
v 15.60330 6.42773 6.46310
v 14.62621 7.04557 8.44444
v 13.39886 7.65771 10.28130
v 11.94225 8.20744 11.94225
v 10.28130 8.71033 13.39886
v 8.44444 9.19551 14.62621
v 6.46310 9.69429 15.60330
v 4.37117 10.23373 16.31341
v 2.20444 10.83204 16.74440
v 0.00000 11.49563 16.88889
v -2.20444 12.21802 16.74440
v -4.37117 12.98082 16.31341
v -6.46310 12.91221 15.60330
v -8.44444 11.79354 14.62621
v -10.28130 10.62475 13.39886
v -11.94225 9.38854 11.94225
v -13.39886 8.07796 10.28130
v -14.62621 6.70052 8.44444
v -15.60330 5.28195 6.46310
v -16.31341 3.87198 4.37117
v -16.74440 2.55868 2.20444
v -16.88889 1.50670 0.00000
v -16.74440 1.01092 -2.20444
v -16.31341 1.34019 -4.37117
v -15.60330 2.36916 -6.46310
v -14.62621 3.80330 -8.44444
v -13.39886 5.45849 -10.28130
v -11.94225 7.23255 -11.94225
v -10.28130 9.05437 -13.39886
v -8.44444 10.86476 -14.62621
v -6.46310 12.61229 -15.60330
v -4.37117 14.25462 -16.31341
v -2.20444 15.76133 -16.74440
v -0.00000 17.11666 -16.88889
v 2.20444 17.91226 -16.74440
v 4.37117 17.27322 -16.31341
v 6.46310 16.56870 -15.60330
v 8.44444 15.86451 -14.62621
v 10.28130 15.22277 -13.39886
v 11.94225 14.65742 -11.94225
v 13.39886 14.08948 -10.28130
v 14.62621 13.36756 -8.44444
v 15.60330 12.38399 -6.46310
v 16.31341 11.18261 -4.37117
v 16.74440 9.91844 -2.20444
v 19.00000 9.59540 0.00000
v 18.83745 8.52638 2.48000
v 18.35259 7.77889 4.91756
v 17.55371 7.59297 7.27099
v 16.45448 7.89633 9.50000
v 15.07371 8.34135 11.56647
v 13.43503 8.78414 13.43503
v 11.56647 9.20492 15.07371
v 9.50000 9.62471 16.45448
v 7.27099 10.07603 17.55371
v 4.91756 10.58960 18.35259
v 2.48000 11.18658 18.83745
v 0.00000 11.87403 19.00000
v -2.48000 12.64318 18.83745
v -4.91756 13.47042 18.35259
v -7.27099 13.94230 17.55371
v -9.50000 12.82187 16.45448
v -11.56647 11.65112 15.07371
v -13.43503 10.40880 13.43503
v -15.07371 9.08771 11.56647
v -16.45448 7.70025 9.50000
v -17.55371 6.28360 7.27099
v -18.35259 4.90600 4.91756
v -18.83745 3.67711 2.48000
v -19.00000 2.76056 0.00000
v -18.83745 2.35986 -2.48000
v -18.35259 2.61527 -4.91756
v -17.55371 3.48678 -7.27099
v -16.45448 4.81552 -9.50000
v -15.07371 6.44608 -11.56647
v -13.43503 8.25958 -13.43503
v -11.56647 10.16226 -15.07371
v -9.50000 12.07477 -16.45448
v -7.27099 13.92911 -17.55371
v -4.91756 15.67006 -18.35259
v -2.48000 17.25815 -18.83745
v -0.00000 18.67265 -19.00000
v 2.48000 18.99804 -18.83745
v 4.91756 18.29562 -18.35259
v 7.27099 17.52203 -17.55371
v 9.50000 16.77480 -16.45448
v 11.56647 16.16713 -15.07371
v 13.43503 15.75637 -13.43503
v 15.07371 15.43096 -11.56647
v 16.45448 14.89319 -9.50000
v 17.55371 13.88040 -7.27099
v 18.35259 12.44807 -4.91756
v 18.83745 10.92693 -2.48000
v 21.11111 10.69252 0.00000
v 20.93050 9.68961 2.75555
v 20.39177 9.08354 5.46396
v 19.50412 8.87278 8.07887
v 18.28276 8.98348 10.55556
v 16.74857 9.24304 12.85163
v 14.92781 9.53820 14.92781
v 12.85163 9.83928 16.74857
v 10.55556 10.16239 18.28276
v 8.07887 10.54107 19.50412
v 5.46396 11.00925 20.39177
v 2.75555 11.59063 20.93050
v 0.00000 12.29244 21.11111
v -2.75555 13.10290 20.93050
v -5.46396 13.99230 20.39177
v -8.07887 14.91702 19.50412
v -10.55556 13.93622 18.28276
v -12.85163 12.78231 16.74857
v -14.92781 11.55212 14.92781
v -16.74857 10.23727 12.85163
v -18.28276 8.85371 10.55556
v -19.50412 7.44701 8.07887
v -20.39177 6.09689 5.46396
v -20.93050 4.92046 2.75555
v -21.11111 4.06851 0.00000
v -20.93050 3.69812 -2.75555
v -20.39177 3.90976 -5.46396
v -19.50412 4.69496 -8.07887
v -18.28276 5.95761 -10.55556
v -16.74857 7.57321 -12.85163
v -14.92781 9.42248 -14.92781
v -12.85163 11.39802 -16.74857
v -10.55556 13.40366 -18.28276
v -8.07887 15.35553 -19.50412
v -5.46396 17.18522 -20.39177
v -2.75555 18.84383 -20.93050
v -0.00000 20.30517 -21.11111
v 2.75555 20.12187 -20.93050
v 5.46396 19.35182 -20.39177
v 8.07887 18.49575 -19.50412
v 10.55556 17.67930 -18.28276
v 12.85163 17.07829 -16.74857
v 14.92781 16.83544 -14.92781
v 16.74857 16.85086 -12.85163
v 18.28276 16.64616 -10.55556
v 19.50412 15.68835 -8.07887
v 20.39177 13.99592 -5.46396
v 20.93050 12.15925 -2.75555
v 23.22222 11.88713 0.00000
v 23.02355 10.93565 3.03111
v 22.43094 10.41581 6.01035
v 21.45454 10.18903 8.88676
v 20.11103 10.17292 11.61111
v 18.42343 10.27020 14.13679
v 16.42059 10.40985 16.42059
v 14.13679 10.57296 18.42343
v 11.61111 10.77959 20.11103
v 8.88676 11.06773 21.45454
v 6.01035 11.47591 22.43094
v 3.03111 12.03094 23.02355
v 0.00000 12.74022 23.22222
v -3.03111 13.58861 23.02355
v -6.01035 14.53955 22.43094
v -8.88676 15.53986 21.45454
v -11.61111 15.11892 20.11103
v -14.13679 13.99640 18.42343
v -16.42059 12.79116 16.42059
v -18.42343 11.49229 14.13679
v -20.11103 10.11750 11.61111
v -21.45454 8.71804 8.88676
v -22.43094 7.38077 6.01035
v -23.02355 6.22579 3.03111
v -23.22222 5.39508 0.00000
v -23.02355 5.02467 -3.03111
v -22.43094 5.20225 -6.01035
v -21.45454 5.93643 -8.88676
v -20.11103 7.16404 -11.61111
v -18.42343 8.78212 -14.13679
v -16.42059 10.67445 -16.42059
v -14.13679 12.72452 -18.42343
v -11.61111 14.82196 -20.11103
v -8.88676 16.86795 -21.45454
v -6.01035 18.78111 -22.43094
v -3.03111 20.50304 -23.02355
v -0.00000 21.93122 -23.22222
v 3.03111 21.28091 -23.02355
v 6.01035 20.44102 -22.43094
v 8.88676 19.49178 -21.45454
v 11.61111 18.57480 -20.11103
v 14.13679 17.92012 -18.42343
v 16.42059 17.78500 -16.42059
v 18.42343 18.15786 -14.13679
v 20.11103 18.40739 -11.61111
v 21.45454 17.62188 -8.88676
v 22.43094 15.68366 -6.01035
v 23.02355 13.49826 -3.03111
v 25.33333 13.10911 0.00000
v 25.11660 12.21761 3.30666
v 24.47012 11.76746 6.55675
v 23.40495 11.52954 9.69465
v 21.93931 11.41724 12.66667
v 20.09828 11.37284 15.42196
v 17.91337 11.35943 17.91337
v 15.42196 11.37624 20.09828
v 12.66667 11.45395 21.93931
v 9.69465 11.63885 23.40495
v 6.55675 11.97617 24.47012
v 3.30666 12.49686 25.11660
v 0.00000 13.20884 25.33333
v -3.30666 14.09341 25.11660
v -6.55675 15.10657 24.47012
v -9.69465 16.18471 23.40495
v -12.66667 16.35666 21.93931
v -15.42196 15.27716 20.09828
v -17.91337 14.10614 17.91337
v -20.09828 12.82880 15.42196
v -21.93931 11.46306 12.66667
v -23.40495 10.06401 9.69465
v -24.47012 8.72379 6.55675
v -25.11660 7.56541 3.30666
v -25.33333 6.72772 0.00000
v -25.11660 6.33920 -3.30666
v -24.47012 6.48564 -6.55675
v -23.40495 7.18773 -9.69465
v -21.93931 8.40196 -12.66667
v -20.09828 10.03923 -15.42196
v -17.91337 11.98539 -17.91337
v -15.42196 14.11628 -20.09828
v -12.66667 16.30853 -21.93931
v -9.69465 18.44899 -23.40495
v -6.55675 20.44344 -24.47012
v -3.30666 22.22403 -25.11660
v -0.00000 23.16303 -25.33333
v 3.30666 22.47212 -25.11660
v 6.55675 21.56204 -24.47012
v 9.69465 20.51517 -23.40495
v 12.66667 19.47525 -21.93931
v 15.42196 18.69910 -20.09828
v 17.91337 18.55077 -17.91337
v 20.09828 19.18153 -15.42196
v 21.93931 19.91479 -12.66667
v 23.40495 19.42454 -9.69465
v 24.47012 17.32698 -6.55675
v 25.11660 14.83211 -3.30666
v 27.44444 14.32243 0.00000
v 27.20965 13.52013 3.58222
v 26.50930 13.13707 7.10314
v 25.35536 12.89081 10.50253
v 23.76759 12.69775 13.72222
v 21.77314 12.52509 16.70712
v 19.40615 12.36238 19.40615
v 16.70712 12.22863 21.77314
v 13.72222 12.16904 23.76759
v 10.50253 12.24136 25.35536
v 7.10314 12.49959 26.50930
v 3.58222 12.97997 27.20965
v 0.00000 13.69149 27.44444
v -3.58222 14.61180 27.20965
v -7.10314 15.68892 26.50930
v -10.50253 16.84796 25.35536
v -13.72222 17.63940 23.76759
v -16.70712 16.61255 21.77314
v -19.40615 15.48278 19.40615
v -21.77314 14.23012 16.70712
v -23.76759 12.87153 13.72222
v -25.35536 11.46489 10.50253
v -26.50930 10.10719 7.10314
v -27.20965 8.92573 3.58222
v -27.44444 8.06097 0.00000
v -27.20965 7.64158 -3.58222
v -26.50930 7.75693 -7.10314
v -25.35536 8.43783 -10.50253
v -23.76759 9.65387 -13.72222
v -21.77314 11.32457 -16.70712
v -19.40615 13.33589 -19.40615
v -16.70712 15.55584 -21.77314
v -13.72222 17.84831 -23.76759
v -10.50253 20.08590 -25.35536
v -7.10314 22.16149 -26.50930
v -3.58222 23.99780 -27.20965
v -0.00000 24.42367 -27.44444
v 3.58222 23.69225 -27.20965
v 7.10314 22.71203 -26.50930
v 10.50253 21.56814 -25.35536
v 13.72222 20.39833 -23.76759
v 16.70712 19.45382 -21.77314
v 19.40615 19.15768 -19.40615
v 21.77314 19.84952 -16.70712
v 23.76759 20.96224 -13.72222
v 25.35536 20.84629 -10.50253
v 26.50930 18.74463 -7.10314
v 27.20965 16.07204 -3.58222
v 29.55556 15.51640 0.00000
v 29.30270 14.83981 3.85777
v 28.54847 14.52458 7.64954
v 27.30577 14.27142 11.31042
v 25.59586 14.00591 14.77778
v 23.44800 13.71301 17.99228
v 20.89893 13.40356 20.89893
v 17.99228 13.11627 23.44800
v 14.77778 12.91305 25.59586
v 11.31042 12.86546 27.30577
v 7.64954 13.03810 28.54847
v 3.85777 13.47370 29.30270
v 0.00000 14.18278 29.55556
v -3.85777 15.13936 29.30270
v -7.64954 16.28299 28.54847
v -11.31042 17.52669 27.30577
v -14.77778 18.76921 25.59586
v -17.99228 17.99363 23.44800
v -20.89893 16.91071 20.89893
v -23.44800 15.68457 17.99228
v -25.59586 14.33029 14.77778
v -27.30577 12.90805 11.31042
v -28.54847 11.51999 7.64954
v -29.30270 10.29938 3.85777
v -29.55556 9.39206 0.00000
v -29.30270 8.93175 -3.85777
v -28.54847 9.01461 -7.64954
v -27.30577 9.68092 -11.31042
v -25.59586 10.90976 -14.77778
v -23.44800 12.62584 -17.99228
v -20.89893 14.71320 -20.89893
v -17.99228 17.03115 -23.44800
v -14.77778 19.43048 -25.59586
v -11.31042 21.76924 -27.30577
v -7.64954 23.92719 -28.54847
v -3.85777 25.81749 -29.30270
v -0.00000 25.71102 -29.55556
v 3.85777 24.93834 -29.30270
v 7.64954 23.88716 -28.54847
v 11.31042 22.64833 -27.30577
v 14.77778 21.35382 -25.59586
v 17.99228 20.22823 -23.44800
v 20.89893 19.68903 -20.89893
v 23.44800 20.21864 -17.99228
v 25.59586 21.48893 -14.77778
v 27.30577 21.73805 -11.31042
v 28.54847 19.81684 -7.64954
v 29.30270 17.17089 -3.85777
v 31.66667 16.69815 0.00000
v 31.39575 16.17768 4.13333
v 30.58765 15.93001 8.19594
v 29.25619 15.67061 12.11831
v 27.42414 15.33734 15.83333
v 25.12286 14.92865 19.27745
v 22.39171 14.47344 22.39171
v 19.27745 14.02973 25.12286
v 15.83333 13.67746 27.42414
v 12.11831 13.50381 29.25619
v 8.19594 13.58553 30.58765
v 4.13333 13.97287 31.39575
v 0.00000 14.67843 31.66667
v -4.13333 15.67255 31.39575
v -8.19594 16.88589 30.58765
v -12.11831 18.21855 29.25619
v -15.83333 19.55431 27.42414
v -19.27745 19.41365 25.12286
v -22.39171 18.38234 22.39171
v -25.12286 17.18382 19.27745
v -27.42414 15.83068 15.83333
v -29.25619 14.38525 12.11831
v -30.58765 12.95539 8.19594
v -31.39575 11.68209 4.13333
v -31.66667 10.71946 0.00000
v -31.39575 10.20968 -4.13333
v -30.58765 10.25789 -8.19594
v -29.25619 10.91367 -12.11831
v -27.42414 12.16359 -15.83333
v -25.12286 13.93515 -19.27745
v -22.39171 16.10869 -22.39171
v -19.27745 18.53371 -25.12286
v -15.83333 21.04715 -27.42414
v -12.11831 23.49198 -29.25619
v -8.19594 25.73439 -30.58765
v -4.13333 27.46567 -31.39575
v -0.00000 27.02341 -31.66667
v 4.13333 26.20798 -31.39575
v 8.19594 25.08376 -30.58765
v 12.11831 23.75067 -29.25619
v 15.83333 22.34073 -27.42414
v 19.27745 21.04889 -25.12286
v 22.39171 20.23758 -22.39171
v 25.12286 20.43820 -19.27745
v 27.42414 21.60196 -15.83333
v 29.25619 22.11125 -12.11831
v 30.58765 20.52696 -8.19594
v 31.39575 18.13193 -4.13333
v 33.77778 17.88369 0.00000
v 33.48880 17.53541 4.40888
v 32.62683 17.35318 8.74233
v 31.20660 17.08793 12.92620
v 29.25241 16.68957 16.88889
v 26.79771 16.16720 20.56261
v 23.88450 15.56584 23.88450
v 20.56261 14.96249 26.79771
v 16.88889 14.45610 29.25241
v 12.92620 14.15090 31.20660
v 8.74233 14.13709 32.62683
v 4.40888 14.47341 33.48880
v 0.00000 15.17502 33.77778
v -4.40888 16.20854 33.48880
v -8.74233 17.49526 32.62683
v -12.92620 18.92162 31.20660
v -16.88889 20.35543 29.25241
v -20.56261 20.86750 26.79771
v -23.88450 19.89201 23.88450
v -26.79771 18.72186 20.56261
v -29.25241 17.36666 16.88889
v -31.20660 15.89093 12.92620
v -32.62683 14.40900 8.74233
v -33.48880 13.07120 4.40888
v -33.77778 12.04227 0.00000
v -33.48880 11.47534 -4.40888
v -32.62683 11.48626 -8.74233
v -31.20660 12.13403 -12.92620
v -29.25241 13.41151 -16.88889
v -26.79771 15.24727 -20.56261
v -23.88450 17.51642 -23.88450
v -20.56261 20.05744 -26.79771
v -16.88889 22.69253 -29.25241
v -12.92620 25.24881 -31.20660
v -8.74233 27.57837 -32.62683
v -4.40888 28.80630 -33.48880
v -0.00000 28.35951 -33.77778
v 4.40888 27.49934 -33.48880
v 8.74233 26.29889 -32.62683
v 12.92620 24.86990 -31.20660
v 16.88889 23.35145 -29.25241
v 20.56261 21.91903 -26.79771
v 23.88450 20.86345 -23.88450
v 26.79771 20.67236 -20.56261
v 29.25241 21.51805 -16.88889
v 31.20660 22.12584 -12.92620
v 32.62683 20.96191 -8.74233
v 33.48880 19.00063 -4.40888
v 35.88889 19.08924 0.00000
v 35.58185 18.91363 4.68444
v 34.66600 18.79370 9.28873
v 33.15701 18.52310 13.73408
v 31.08069 18.06114 17.94444
v 28.47257 17.42562 21.84777
v 25.37728 16.67660 25.37728
v 21.84777 15.90996 28.47257
v 17.94444 15.24447 31.08069
v 13.73408 14.80257 33.15701
v 9.28873 14.68909 34.66600
v 4.68444 14.97214 35.58185
v 0.00000 15.66982 35.88889
v -4.68444 16.74502 35.58185
v -9.28873 18.10918 34.66600
v -13.73408 19.63431 33.15701
v -17.94444 21.17128 31.08069
v -21.84777 22.35124 28.47257
v -25.37728 21.43543 25.37728
v -28.47257 20.29423 21.84777
v -31.08069 18.93388 17.94444
v -33.15701 17.42123 13.73408
v -34.66600 15.87790 9.28873
v -35.58185 14.46499 4.68444
v -35.88889 13.35989 0.00000
v -35.58185 12.72872 -4.68444
v -34.66600 12.69942 -9.28873
v -33.15701 13.34069 -13.73408
v -31.08069 14.65095 -17.94444
v -28.47257 16.55859 -21.84777
v -25.37728 18.93214 -25.37728
v -21.84777 21.59790 -28.47257
v -17.94444 24.36225 -31.08069
v -13.73408 27.03566 -33.15701
v -9.28873 29.45548 -34.66600
v -4.68444 30.16963 -35.58185
v -0.00000 29.71825 -35.88889
v 4.68444 28.81101 -35.58185
v 9.28873 27.53045 -34.66600
v 13.73408 26.00197 -33.15701
v 17.94444 24.37730 -31.08069
v 21.84777 22.82668 -28.47257
v 25.37728 21.58130 -25.37728
v 28.47257 21.03272 -21.84777
v 31.08069 21.46296 -17.94444
v 33.15701 22.01450 -13.73408
v 34.66600 21.27054 -9.28873
v 35.58185 19.84238 -4.68444
v 38.00000 20.32530 0.00000
v 37.67490 20.31169 4.96000
v 36.70518 20.25118 9.83512
v 35.10742 19.97593 14.54197
v 32.90897 19.45109 19.00000
v 30.14743 18.70192 23.13293
v 26.87006 17.80287 26.87006
v 23.13293 16.86887 30.14743
v 19.00000 16.03920 32.90897
v 14.54197 15.45561 35.10742
v 9.83512 15.23863 36.70518
v 4.96000 15.46649 37.67490
v 0.00000 16.16062 38.00000
v -4.96000 17.28011 37.67490
v -9.83512 18.72609 36.70518
v -14.54197 20.35531 35.10742
v -19.00000 22.00080 32.90897
v -23.13293 23.49631 30.14743
v -26.87006 23.00935 26.87006
v -30.14743 21.89761 23.13293
v -32.90897 20.52916 19.00000
v -35.10742 18.97340 14.54197
v -36.70518 17.36003 9.83512
v -37.67490 15.86229 4.96000
v -38.00000 14.67193 0.00000
v -37.67490 13.96982 -4.96000
v -36.70518 13.89717 -9.83512
v -35.10742 14.53276 -14.54197
v -32.90897 15.88015 -19.00000
v -30.14743 17.86657 -23.13293
v -26.87006 20.35279 -26.87006
v -23.13293 23.15178 -30.14743
v -19.00000 26.05303 -32.90897
v -14.54197 28.84941 -35.10742
v -9.83512 31.36284 -36.70518
v -4.96000 31.55497 -37.67490
v -0.00000 31.09874 -38.00000
v 4.96000 30.14185 -37.67490
v 9.83512 28.77690 -36.70518
v 14.54197 27.14418 -35.10742
v 19.00000 25.41160 -32.90897
v 23.13293 23.75596 -30.14743
v 26.87006 22.37343 -26.87006
v 30.14743 21.55495 -23.13293
v 32.90897 21.58915 -19.00000
v 35.10742 21.98878 -14.54197
v 36.70518 21.60356 -9.83512
v 37.67490 20.71710 -4.96000
f 1 49 50
f 1 50 2
f 2 50 51
f 2 51 3
f 3 51 52
f 3 52 4
f 4 52 53
f 4 53 5
f 5 53 54
f 5 54 6
f 6 54 55
f 6 55 7
f 7 55 56
f 7 56 8
f 8 56 57
f 8 57 9
f 9 57 58
f 9 58 10
f 10 58 59
f 10 59 11
f 11 59 60
f 11 60 12
f 12 60 61
f 12 61 13
f 13 61 62
f 13 62 14
f 14 62 63
f 14 63 15
f 15 63 64
f 15 64 16
f 16 64 65
f 16 65 17
f 17 65 66
f 17 66 18
f 18 66 67
f 18 67 19
f 19 67 68
f 19 68 20
f 20 68 69
f 20 69 21
f 21 69 70
f 21 70 22
f 22 70 71
f 22 71 23
f 23 71 72
f 23 72 24
f 24 72 73
f 24 73 25
f 25 73 74
f 25 74 26
f 26 74 75
f 26 75 27
f 27 75 76
f 27 76 28
f 28 76 77
f 28 77 29
f 29 77 78
f 29 78 30
f 30 78 79
f 30 79 31
f 31 79 80
f 31 80 32
f 32 80 81
f 32 81 33
f 33 81 82
f 33 82 34
f 34 82 83
f 34 83 35
f 35 83 84
f 35 84 36
f 36 84 85
f 36 85 37
f 37 85 86
f 37 86 38
f 38 86 87
f 38 87 39
f 39 87 88
f 39 88 40
f 40 88 89
f 40 89 41
f 41 89 90
f 41 90 42
f 42 90 91
f 42 91 43
f 43 91 92
f 43 92 44
f 44 92 93
f 44 93 45
f 45 93 94
f 45 94 46
f 46 94 95
f 46 95 47
f 47 95 96
f 47 96 48
f 48 96 49
f 48 49 1
f 49 97 98
f 49 98 50
f 50 98 99
f 50 99 51
f 51 99 100
f 51 100 52
f 52 100 101
f 52 101 53
f 53 101 102
f 53 102 54
f 54 102 103
f 54 103 55
f 55 103 104
f 55 104 56
f 56 104 105
f 56 105 57
f 57 105 106
f 57 106 58
f 58 106 107
f 58 107 59
f 59 107 108
f 59 108 60
f 60 108 109
f 60 109 61
f 61 109 110
f 61 110 62
f 62 110 111
f 62 111 63
f 63 111 112
f 63 112 64
f 64 112 113
f 64 113 65
f 65 113 114
f 65 114 66
f 66 114 115
f 66 115 67
f 67 115 116
f 67 116 68
f 68 116 117
f 68 117 69
f 69 117 118
f 69 118 70
f 70 118 119
f 70 119 71
f 71 119 120
f 71 120 72
f 72 120 121
f 72 121 73
f 73 121 122
f 73 122 74
f 74 122 123
f 74 123 75
f 75 123 124
f 75 124 76
f 76 124 125
f 76 125 77
f 77 125 126
f 77 126 78
f 78 126 127
f 78 127 79
f 79 127 128
f 79 128 80
f 80 128 129
f 80 129 81
f 81 129 130
f 81 130 82
f 82 130 131
f 82 131 83
f 83 131 132
f 83 132 84
f 84 132 133
f 84 133 85
f 85 133 134
f 85 134 86
f 86 134 135
f 86 135 87
f 87 135 136
f 87 136 88
f 88 136 137
f 88 137 89
f 89 137 138
f 89 138 90
f 90 138 139
f 90 139 91
f 91 139 140
f 91 140 92
f 92 140 141
f 92 141 93
f 93 141 142
f 93 142 94
f 94 142 143
f 94 143 95
f 95 143 144
f 95 144 96
f 96 144 97
f 96 97 49
f 97 145 146
f 97 146 98
f 98 146 147
f 98 147 99
f 99 147 148
f 99 148 100
f 100 148 149
f 100 149 101
f 101 149 150
f 101 150 102
f 102 150 151
f 102 151 103
f 103 151 152
f 103 152 104
f 104 152 153
f 104 153 105
f 105 153 154
f 105 154 106
f 106 154 155
f 106 155 107
f 107 155 156
f 107 156 108
f 108 156 157
f 108 157 109
f 109 157 158
f 109 158 110
f 110 158 159
f 110 159 111
f 111 159 160
f 111 160 112
f 112 160 161
f 112 161 113
f 113 161 162
f 113 162 114
f 114 162 163
f 114 163 115
f 115 163 164
f 115 164 116
f 116 164 165
f 116 165 117
f 117 165 166
f 117 166 118
f 118 166 167
f 118 167 119
f 119 167 168
f 119 168 120
f 120 168 169
f 120 169 121
f 121 169 170
f 121 170 122
f 122 170 171
f 122 171 123
f 123 171 172
f 123 172 124
f 124 172 173
f 124 173 125
f 125 173 174
f 125 174 126
f 126 174 175
f 126 175 127
f 127 175 176
f 127 176 128
f 128 176 177
f 128 177 129
f 129 177 178
f 129 178 130
f 130 178 179
f 130 179 131
f 131 179 180
f 131 180 132
f 132 180 181
f 132 181 133
f 133 181 182
f 133 182 134
f 134 182 183
f 134 183 135
f 135 183 184
f 135 184 136
f 136 184 185
f 136 185 137
f 137 185 186
f 137 186 138
f 138 186 187
f 138 187 139
f 139 187 188
f 139 188 140
f 140 188 189
f 140 189 141
f 141 189 190
f 141 190 142
f 142 190 191
f 142 191 143
f 143 191 192
f 143 192 144
f 144 192 145
f 144 145 97
f 145 193 194
f 145 194 146
f 146 194 195
f 146 195 147
f 147 195 196
f 147 196 148
f 148 196 197
f 148 197 149
f 149 197 198
f 149 198 150
f 150 198 199
f 150 199 151
f 151 199 200
f 151 200 152
f 152 200 201
f 152 201 153
f 153 201 202
f 153 202 154
f 154 202 203
f 154 203 155
f 155 203 204
f 155 204 156
f 156 204 205
f 156 205 157
f 157 205 206
f 157 206 158
f 158 206 207
f 158 207 159
f 159 207 208
f 159 208 160
f 160 208 209
f 160 209 161
f 161 209 210
f 161 210 162
f 162 210 211
f 162 211 163
f 163 211 212
f 163 212 164
f 164 212 213
f 164 213 165
f 165 213 214
f 165 214 166
f 166 214 215
f 166 215 167
f 167 215 216
f 167 216 168
f 168 216 217
f 168 217 169
f 169 217 218
f 169 218 170
f 170 218 219
f 170 219 171
f 171 219 220
f 171 220 172
f 172 220 221
f 172 221 173
f 173 221 222
f 173 222 174
f 174 222 223
f 174 223 175
f 175 223 224
f 175 224 176
f 176 224 225
f 176 225 177
f 177 225 226
f 177 226 178
f 178 226 227
f 178 227 179
f 179 227 228
f 179 228 180
f 180 228 229
f 180 229 181
f 181 229 230
f 181 230 182
f 182 230 231
f 182 231 183
f 183 231 232
f 183 232 184
f 184 232 233
f 184 233 185
f 185 233 234
f 185 234 186
f 186 234 235
f 186 235 187
f 187 235 236
f 187 236 188
f 188 236 237
f 188 237 189
f 189 237 238
f 189 238 190
f 190 238 239
f 190 239 191
f 191 239 240
f 191 240 192
f 192 240 193
f 192 193 145
f 193 241 242
f 193 242 194
f 194 242 243
f 194 243 195
f 195 243 244
f 195 244 196
f 196 244 245
f 196 245 197
f 197 245 246
f 197 246 198
f 198 246 247
f 198 247 199
f 199 247 248
f 199 248 200
f 200 248 249
f 200 249 201
f 201 249 250
f 201 250 202
f 202 250 251
f 202 251 203
f 203 251 252
f 203 252 204
f 204 252 253
f 204 253 205
f 205 253 254
f 205 254 206
f 206 254 255
f 206 255 207
f 207 255 256
f 207 256 208
f 208 256 257
f 208 257 209
f 209 257 258
f 209 258 210
f 210 258 259
f 210 259 211
f 211 259 260
f 211 260 212
f 212 260 261
f 212 261 213
f 213 261 262
f 213 262 214
f 214 262 263
f 214 263 215
f 215 263 264
f 215 264 216
f 216 264 265
f 216 265 217
f 217 265 266
f 217 266 218
f 218 266 267
f 218 267 219
f 219 267 268
f 219 268 220
f 220 268 269
f 220 269 221
f 221 269 270
f 221 270 222
f 222 270 271
f 222 271 223
f 223 271 272
f 223 272 224
f 224 272 273
f 224 273 225
f 225 273 274
f 225 274 226
f 226 274 275
f 226 275 227
f 227 275 276
f 227 276 228
f 228 276 277
f 228 277 229
f 229 277 278
f 229 278 230
f 230 278 279
f 230 279 231
f 231 279 280
f 231 280 232
f 232 280 281
f 232 281 233
f 233 281 282
f 233 282 234
f 234 282 283
f 234 283 235
f 235 283 284
f 235 284 236
f 236 284 285
f 236 285 237
f 237 285 286
f 237 286 238
f 238 286 287
f 238 287 239
f 239 287 288
f 239 288 240
f 240 288 241
f 240 241 193
f 241 289 290
f 241 290 242
f 242 290 291
f 242 291 243
f 243 291 292
f 243 292 244
f 244 292 293
f 244 293 245
f 245 293 294
f 245 294 246
f 246 294 295
f 246 295 247
f 247 295 296
f 247 296 248
f 248 296 297
f 248 297 249
f 249 297 298
f 249 298 250
f 250 298 299
f 250 299 251
f 251 299 300
f 251 300 252
f 252 300 301
f 252 301 253
f 253 301 302
f 253 302 254
f 254 302 303
f 254 303 255
f 255 303 304
f 255 304 256
f 256 304 305
f 256 305 257
f 257 305 306
f 257 306 258
f 258 306 307
f 258 307 259
f 259 307 308
f 259 308 260
f 260 308 309
f 260 309 261
f 261 309 310
f 261 310 262
f 262 310 311
f 262 311 263
f 263 311 312
f 263 312 264
f 264 312 313
f 264 313 265
f 265 313 314
f 265 314 266
f 266 314 315
f 266 315 267
f 267 315 316
f 267 316 268
f 268 316 317
f 268 317 269
f 269 317 318
f 269 318 270
f 270 318 319
f 270 319 271
f 271 319 320
f 271 320 272
f 272 320 321
f 272 321 273
f 273 321 322
f 273 322 274
f 274 322 323
f 274 323 275
f 275 323 324
f 275 324 276
f 276 324 325
f 276 325 277
f 277 325 326
f 277 326 278
f 278 326 327
f 278 327 279
f 279 327 328
f 279 328 280
f 280 328 329
f 280 329 281
f 281 329 330
f 281 330 282
f 282 330 331
f 282 331 283
f 283 331 332
f 283 332 284
f 284 332 333
f 284 333 285
f 285 333 334
f 285 334 286
f 286 334 335
f 286 335 287
f 287 335 336
f 287 336 288
f 288 336 289
f 288 289 241
f 289 337 338
f 289 338 290
f 290 338 339
f 290 339 291
f 291 339 340
f 291 340 292
f 292 340 341
f 292 341 293
f 293 341 342
f 293 342 294
f 294 342 343
f 294 343 295
f 295 343 344
f 295 344 296
f 296 344 345
f 296 345 297
f 297 345 346
f 297 346 298
f 298 346 347
f 298 347 299
f 299 347 348
f 299 348 300
f 300 348 349
f 300 349 301
f 301 349 350
f 301 350 302
f 302 350 351
f 302 351 303
f 303 351 352
f 303 352 304
f 304 352 353
f 304 353 305
f 305 353 354
f 305 354 306
f 306 354 355
f 306 355 307
f 307 355 356
f 307 356 308
f 308 356 357
f 308 357 309
f 309 357 358
f 309 358 310
f 310 358 359
f 310 359 311
f 311 359 360
f 311 360 312
f 312 360 361
f 312 361 313
f 313 361 362
f 313 362 314
f 314 362 363
f 314 363 315
f 315 363 364
f 315 364 316
f 316 364 365
f 316 365 317
f 317 365 366
f 317 366 318
f 318 366 367
f 318 367 319
f 319 367 368
f 319 368 320
f 320 368 369
f 320 369 321
f 321 369 370
f 321 370 322
f 322 370 371
f 322 371 323
f 323 371 372
f 323 372 324
f 324 372 373
f 324 373 325
f 325 373 374
f 325 374 326
f 326 374 375
f 326 375 327
f 327 375 376
f 327 376 328
f 328 376 377
f 328 377 329
f 329 377 378
f 329 378 330
f 330 378 379
f 330 379 331
f 331 379 380
f 331 380 332
f 332 380 381
f 332 381 333
f 333 381 382
f 333 382 334
f 334 382 383
f 334 383 335
f 335 383 384
f 335 384 336
f 336 384 337
f 336 337 289
f 337 385 386
f 337 386 338
f 338 386 387
f 338 387 339
f 339 387 388
f 339 388 340
f 340 388 389
f 340 389 341
f 341 389 390
f 341 390 342
f 342 390 391
f 342 391 343
f 343 391 392
f 343 392 344
f 344 392 393
f 344 393 345
f 345 393 394
f 345 394 346
f 346 394 395
f 346 395 347
f 347 395 396
f 347 396 348
f 348 396 397
f 348 397 349
f 349 397 398
f 349 398 350
f 350 398 399
f 350 399 351
f 351 399 400
f 351 400 352
f 352 400 401
f 352 401 353
f 353 401 402
f 353 402 354
f 354 402 403
f 354 403 355
f 355 403 404
f 355 404 356
f 356 404 405
f 356 405 357
f 357 405 406
f 357 406 358
f 358 406 407
f 358 407 359
f 359 407 408
f 359 408 360
f 360 408 409
f 360 409 361
f 361 409 410
f 361 410 362
f 362 410 411
f 362 411 363
f 363 411 412
f 363 412 364
f 364 412 413
f 364 413 365
f 365 413 414
f 365 414 366
f 366 414 415
f 366 415 367
f 367 415 416
f 367 416 368
f 368 416 417
f 368 417 369
f 369 417 418
f 369 418 370
f 370 418 419
f 370 419 371
f 371 419 420
f 371 420 372
f 372 420 421
f 372 421 373
f 373 421 422
f 373 422 374
f 374 422 423
f 374 423 375
f 375 423 424
f 375 424 376
f 376 424 425
f 376 425 377
f 377 425 426
f 377 426 378
f 378 426 427
f 378 427 379
f 379 427 428
f 379 428 380
f 380 428 429
f 380 429 381
f 381 429 430
f 381 430 382
f 382 430 431
f 382 431 383
f 383 431 432
f 383 432 384
f 384 432 385
f 384 385 337
f 385 433 434
f 385 434 386
f 386 434 435
f 386 435 387
f 387 435 436
f 387 436 388
f 388 436 437
f 388 437 389
f 389 437 438
f 389 438 390
f 390 438 439
f 390 439 391
f 391 439 440
f 391 440 392
f 392 440 441
f 392 441 393
f 393 441 442
f 393 442 394
f 394 442 443
f 394 443 395
f 395 443 444
f 395 444 396
f 396 444 445
f 396 445 397
f 397 445 446
f 397 446 398
f 398 446 447
f 398 447 399
f 399 447 448
f 399 448 400
f 400 448 449
f 400 449 401
f 401 449 450
f 401 450 402
f 402 450 451
f 402 451 403
f 403 451 452
f 403 452 404
f 404 452 453
f 404 453 405
f 405 453 454
f 405 454 406
f 406 454 455
f 406 455 407
f 407 455 456
f 407 456 408
f 408 456 457
f 408 457 409
f 409 457 458
f 409 458 410
f 410 458 459
f 410 459 411
f 411 459 460
f 411 460 412
f 412 460 461
f 412 461 413
f 413 461 462
f 413 462 414
f 414 462 463
f 414 463 415
f 415 463 464
f 415 464 416
f 416 464 465
f 416 465 417
f 417 465 466
f 417 466 418
f 418 466 467
f 418 467 419
f 419 467 468
f 419 468 420
f 420 468 469
f 420 469 421
f 421 469 470
f 421 470 422
f 422 470 471
f 422 471 423
f 423 471 472
f 423 472 424
f 424 472 473
f 424 473 425
f 425 473 474
f 425 474 426
f 426 474 475
f 426 475 427
f 427 475 476
f 427 476 428
f 428 476 477
f 428 477 429
f 429 477 478
f 429 478 430
f 430 478 479
f 430 479 431
f 431 479 480
f 431 480 432
f 432 480 433
f 432 433 385
f 433 481 482
f 433 482 434
f 434 482 483
f 434 483 435
f 435 483 484
f 435 484 436
f 436 484 485
f 436 485 437
f 437 485 486
f 437 486 438
f 438 486 487
f 438 487 439
f 439 487 488
f 439 488 440
f 440 488 489
f 440 489 441
f 441 489 490
f 441 490 442
f 442 490 491
f 442 491 443
f 443 491 492
f 443 492 444
f 444 492 493
f 444 493 445
f 445 493 494
f 445 494 446
f 446 494 495
f 446 495 447
f 447 495 496
f 447 496 448
f 448 496 497
f 448 497 449
f 449 497 498
f 449 498 450
f 450 498 499
f 450 499 451
f 451 499 500
f 451 500 452
f 452 500 501
f 452 501 453
f 453 501 502
f 453 502 454
f 454 502 503
f 454 503 455
f 455 503 504
f 455 504 456
f 456 504 505
f 456 505 457
f 457 505 506
f 457 506 458
f 458 506 507
f 458 507 459
f 459 507 508
f 459 508 460
f 460 508 509
f 460 509 461
f 461 509 510
f 461 510 462
f 462 510 511
f 462 511 463
f 463 511 512
f 463 512 464
f 464 512 513
f 464 513 465
f 465 513 514
f 465 514 466
f 466 514 515
f 466 515 467
f 467 515 516
f 467 516 468
f 468 516 517
f 468 517 469
f 469 517 518
f 469 518 470
f 470 518 519
f 470 519 471
f 471 519 520
f 471 520 472
f 472 520 521
f 472 521 473
f 473 521 522
f 473 522 474
f 474 522 523
f 474 523 475
f 475 523 524
f 475 524 476
f 476 524 525
f 476 525 477
f 477 525 526
f 477 526 478
f 478 526 527
f 478 527 479
f 479 527 528
f 479 528 480
f 480 528 481
f 480 481 433
f 481 529 530
f 481 530 482
f 482 530 531
f 482 531 483
f 483 531 532
f 483 532 484
f 484 532 533
f 484 533 485
f 485 533 534
f 485 534 486
f 486 534 535
f 486 535 487
f 487 535 536
f 487 536 488
f 488 536 537
f 488 537 489
f 489 537 538
f 489 538 490
f 490 538 539
f 490 539 491
f 491 539 540
f 491 540 492
f 492 540 541
f 492 541 493
f 493 541 542
f 493 542 494
f 494 542 543
f 494 543 495
f 495 543 544
f 495 544 496
f 496 544 545
f 496 545 497
f 497 545 546
f 497 546 498
f 498 546 547
f 498 547 499
f 499 547 548
f 499 548 500
f 500 548 549
f 500 549 501
f 501 549 550
f 501 550 502
f 502 550 551
f 502 551 503
f 503 551 552
f 503 552 504
f 504 552 553
f 504 553 505
f 505 553 554
f 505 554 506
f 506 554 555
f 506 555 507
f 507 555 556
f 507 556 508
f 508 556 557
f 508 557 509
f 509 557 558
f 509 558 510
f 510 558 559
f 510 559 511
f 511 559 560
f 511 560 512
f 512 560 561
f 512 561 513
f 513 561 562
f 513 562 514
f 514 562 563
f 514 563 515
f 515 563 564
f 515 564 516
f 516 564 565
f 516 565 517
f 517 565 566
f 517 566 518
f 518 566 567
f 518 567 519
f 519 567 568
f 519 568 520
f 520 568 569
f 520 569 521
f 521 569 570
f 521 570 522
f 522 570 571
f 522 571 523
f 523 571 572
f 523 572 524
f 524 572 573
f 524 573 525
f 525 573 574
f 525 574 526
f 526 574 575
f 526 575 527
f 527 575 576
f 527 576 528
f 528 576 529
f 528 529 481
f 529 577 578
f 529 578 530
f 530 578 579
f 530 579 531
f 531 579 580
f 531 580 532
f 532 580 581
f 532 581 533
f 533 581 582
f 533 582 534
f 534 582 583
f 534 583 535
f 535 583 584
f 535 584 536
f 536 584 585
f 536 585 537
f 537 585 586
f 537 586 538
f 538 586 587
f 538 587 539
f 539 587 588
f 539 588 540
f 540 588 589
f 540 589 541
f 541 589 590
f 541 590 542
f 542 590 591
f 542 591 543
f 543 591 592
f 543 592 544
f 544 592 593
f 544 593 545
f 545 593 594
f 545 594 546
f 546 594 595
f 546 595 547
f 547 595 596
f 547 596 548
f 548 596 597
f 548 597 549
f 549 597 598
f 549 598 550
f 550 598 599
f 550 599 551
f 551 599 600
f 551 600 552
f 552 600 601
f 552 601 553
f 553 601 602
f 553 602 554
f 554 602 603
f 554 603 555
f 555 603 604
f 555 604 556
f 556 604 605
f 556 605 557
f 557 605 606
f 557 606 558
f 558 606 607
f 558 607 559
f 559 607 608
f 559 608 560
f 560 608 609
f 560 609 561
f 561 609 610
f 561 610 562
f 562 610 611
f 562 611 563
f 563 611 612
f 563 612 564
f 564 612 613
f 564 613 565
f 565 613 614
f 565 614 566
f 566 614 615
f 566 615 567
f 567 615 616
f 567 616 568
f 568 616 617
f 568 617 569
f 569 617 618
f 569 618 570
f 570 618 619
f 570 619 571
f 571 619 620
f 571 620 572
f 572 620 621
f 572 621 573
f 573 621 622
f 573 622 574
f 574 622 623
f 574 623 575
f 575 623 624
f 575 624 576
f 576 624 577
f 576 577 529
f 577 625 626
f 577 626 578
f 578 626 627
f 578 627 579
f 579 627 628
f 579 628 580
f 580 628 629
f 580 629 581
f 581 629 630
f 581 630 582
f 582 630 631
f 582 631 583
f 583 631 632
f 583 632 584
f 584 632 633
f 584 633 585
f 585 633 634
f 585 634 586
f 586 634 635
f 586 635 587
f 587 635 636
f 587 636 588
f 588 636 637
f 588 637 589
f 589 637 638
f 589 638 590
f 590 638 639
f 590 639 591
f 591 639 640
f 591 640 592
f 592 640 641
f 592 641 593
f 593 641 642
f 593 642 594
f 594 642 643
f 594 643 595
f 595 643 644
f 595 644 596
f 596 644 645
f 596 645 597
f 597 645 646
f 597 646 598
f 598 646 647
f 598 647 599
f 599 647 648
f 599 648 600
f 600 648 649
f 600 649 601
f 601 649 650
f 601 650 602
f 602 650 651
f 602 651 603
f 603 651 652
f 603 652 604
f 604 652 653
f 604 653 605
f 605 653 654
f 605 654 606
f 606 654 655
f 606 655 607
f 607 655 656
f 607 656 608
f 608 656 657
f 608 657 609
f 609 657 658
f 609 658 610
f 610 658 659
f 610 659 611
f 611 659 660
f 611 660 612
f 612 660 661
f 612 661 613
f 613 661 662
f 613 662 614
f 614 662 663
f 614 663 615
f 615 663 664
f 615 664 616
f 616 664 665
f 616 665 617
f 617 665 666
f 617 666 618
f 618 666 667
f 618 667 619
f 619 667 668
f 619 668 620
f 620 668 669
f 620 669 621
f 621 669 670
f 621 670 622
f 622 670 671
f 622 671 623
f 623 671 672
f 623 672 624
f 624 672 625
f 624 625 577
f 625 673 674
f 625 674 626
f 626 674 675
f 626 675 627
f 627 675 676
f 627 676 628
f 628 676 677
f 628 677 629
f 629 677 678
f 629 678 630
f 630 678 679
f 630 679 631
f 631 679 680
f 631 680 632
f 632 680 681
f 632 681 633
f 633 681 682
f 633 682 634
f 634 682 683
f 634 683 635
f 635 683 684
f 635 684 636
f 636 684 685
f 636 685 637
f 637 685 686
f 637 686 638
f 638 686 687
f 638 687 639
f 639 687 688
f 639 688 640
f 640 688 689
f 640 689 641
f 641 689 690
f 641 690 642
f 642 690 691
f 642 691 643
f 643 691 692
f 643 692 644
f 644 692 693
f 644 693 645
f 645 693 694
f 645 694 646
f 646 694 695
f 646 695 647
f 647 695 696
f 647 696 648
f 648 696 697
f 648 697 649
f 649 697 698
f 649 698 650
f 650 698 699
f 650 699 651
f 651 699 700
f 651 700 652
f 652 700 701
f 652 701 653
f 653 701 702
f 653 702 654
f 654 702 703
f 654 703 655
f 655 703 704
f 655 704 656
f 656 704 705
f 656 705 657
f 657 705 706
f 657 706 658
f 658 706 707
f 658 707 659
f 659 707 708
f 659 708 660
f 660 708 709
f 660 709 661
f 661 709 710
f 661 710 662
f 662 710 711
f 662 711 663
f 663 711 712
f 663 712 664
f 664 712 713
f 664 713 665
f 665 713 714
f 665 714 666
f 666 714 715
f 666 715 667
f 667 715 716
f 667 716 668
f 668 716 717
f 668 717 669
f 669 717 718
f 669 718 670
f 670 718 719
f 670 719 671
f 671 719 720
f 671 720 672
f 672 720 673
f 672 673 625
f 673 721 722
f 673 722 674
f 674 722 723
f 674 723 675
f 675 723 724
f 675 724 676
f 676 724 725
f 676 725 677
f 677 725 726
f 677 726 678
f 678 726 727
f 678 727 679
f 679 727 728
f 679 728 680
f 680 728 729
f 680 729 681
f 681 729 730
f 681 730 682
f 682 730 731
f 682 731 683
f 683 731 732
f 683 732 684
f 684 732 733
f 684 733 685
f 685 733 734
f 685 734 686
f 686 734 735
f 686 735 687
f 687 735 736
f 687 736 688
f 688 736 737
f 688 737 689
f 689 737 738
f 689 738 690
f 690 738 739
f 690 739 691
f 691 739 740
f 691 740 692
f 692 740 741
f 692 741 693
f 693 741 742
f 693 742 694
f 694 742 743
f 694 743 695
f 695 743 744
f 695 744 696
f 696 744 745
f 696 745 697
f 697 745 746
f 697 746 698
f 698 746 747
f 698 747 699
f 699 747 748
f 699 748 700
f 700 748 749
f 700 749 701
f 701 749 750
f 701 750 702
f 702 750 751
f 702 751 703
f 703 751 752
f 703 752 704
f 704 752 753
f 704 753 705
f 705 753 754
f 705 754 706
f 706 754 755
f 706 755 707
f 707 755 756
f 707 756 708
f 708 756 757
f 708 757 709
f 709 757 758
f 709 758 710
f 710 758 759
f 710 759 711
f 711 759 760
f 711 760 712
f 712 760 761
f 712 761 713
f 713 761 762
f 713 762 714
f 714 762 763
f 714 763 715
f 715 763 764
f 715 764 716
f 716 764 765
f 716 765 717
f 717 765 766
f 717 766 718
f 718 766 767
f 718 767 719
f 719 767 768
f 719 768 720
f 720 768 721
f 720 721 673
f 721 769 770
f 721 770 722
f 722 770 771
f 722 771 723
f 723 771 772
f 723 772 724
f 724 772 773
f 724 773 725
f 725 773 774
f 725 774 726
f 726 774 775
f 726 775 727
f 727 775 776
f 727 776 728
f 728 776 777
f 728 777 729
f 729 777 778
f 729 778 730
f 730 778 779
f 730 779 731
f 731 779 780
f 731 780 732
f 732 780 781
f 732 781 733
f 733 781 782
f 733 782 734
f 734 782 783
f 734 783 735
f 735 783 784
f 735 784 736
f 736 784 785
f 736 785 737
f 737 785 786
f 737 786 738
f 738 786 787
f 738 787 739
f 739 787 788
f 739 788 740
f 740 788 789
f 740 789 741
f 741 789 790
f 741 790 742
f 742 790 791
f 742 791 743
f 743 791 792
f 743 792 744
f 744 792 793
f 744 793 745
f 745 793 794
f 745 794 746
f 746 794 795
f 746 795 747
f 747 795 796
f 747 796 748
f 748 796 797
f 748 797 749
f 749 797 798
f 749 798 750
f 750 798 799
f 750 799 751
f 751 799 800
f 751 800 752
f 752 800 801
f 752 801 753
f 753 801 802
f 753 802 754
f 754 802 803
f 754 803 755
f 755 803 804
f 755 804 756
f 756 804 805
f 756 805 757
f 757 805 806
f 757 806 758
f 758 806 807
f 758 807 759
f 759 807 808
f 759 808 760
f 760 808 809
f 760 809 761
f 761 809 810
f 761 810 762
f 762 810 811
f 762 811 763
f 763 811 812
f 763 812 764
f 764 812 813
f 764 813 765
f 765 813 814
f 765 814 766
f 766 814 815
f 766 815 767
f 767 815 816
f 767 816 768
f 768 816 769
f 768 769 721
f 769 817 818
f 769 818 770
f 770 818 819
f 770 819 771
f 771 819 820
f 771 820 772
f 772 820 821
f 772 821 773
f 773 821 822
f 773 822 774
f 774 822 823
f 774 823 775
f 775 823 824
f 775 824 776
f 776 824 825
f 776 825 777
f 777 825 826
f 777 826 778
f 778 826 827
f 778 827 779
f 779 827 828
f 779 828 780
f 780 828 829
f 780 829 781
f 781 829 830
f 781 830 782
f 782 830 831
f 782 831 783
f 783 831 832
f 783 832 784
f 784 832 833
f 784 833 785
f 785 833 834
f 785 834 786
f 786 834 835
f 786 835 787
f 787 835 836
f 787 836 788
f 788 836 837
f 788 837 789
f 789 837 838
f 789 838 790
f 790 838 839
f 790 839 791
f 791 839 840
f 791 840 792
f 792 840 841
f 792 841 793
f 793 841 842
f 793 842 794
f 794 842 843
f 794 843 795
f 795 843 844
f 795 844 796
f 796 844 845
f 796 845 797
f 797 845 846
f 797 846 798
f 798 846 847
f 798 847 799
f 799 847 848
f 799 848 800
f 800 848 849
f 800 849 801
f 801 849 850
f 801 850 802
f 802 850 851
f 802 851 803
f 803 851 852
f 803 852 804
f 804 852 853
f 804 853 805
f 805 853 854
f 805 854 806
f 806 854 855
f 806 855 807
f 807 855 856
f 807 856 808
f 808 856 857
f 808 857 809
f 809 857 858
f 809 858 810
f 810 858 859
f 810 859 811
f 811 859 860
f 811 860 812
f 812 860 861
f 812 861 813
f 813 861 862
f 813 862 814
f 814 862 863
f 814 863 815
f 815 863 864
f 815 864 816
f 816 864 817
f 816 817 769
f 817 865 866
f 817 866 818
f 818 866 867
f 818 867 819
f 819 867 868
f 819 868 820
f 820 868 869
f 820 869 821
f 821 869 870
f 821 870 822
f 822 870 871
f 822 871 823
f 823 871 872
f 823 872 824
f 824 872 873
f 824 873 825
f 825 873 874
f 825 874 826
f 826 874 875
f 826 875 827
f 827 875 876
f 827 876 828
f 828 876 877
f 828 877 829
f 829 877 878
f 829 878 830
f 830 878 879
f 830 879 831
f 831 879 880
f 831 880 832
f 832 880 881
f 832 881 833
f 833 881 882
f 833 882 834
f 834 882 883
f 834 883 835
f 835 883 884
f 835 884 836
f 836 884 885
f 836 885 837
f 837 885 886
f 837 886 838
f 838 886 887
f 838 887 839
f 839 887 888
f 839 888 840
f 840 888 889
f 840 889 841
f 841 889 890
f 841 890 842
f 842 890 891
f 842 891 843
f 843 891 892
f 843 892 844
f 844 892 893
f 844 893 845
f 845 893 894
f 845 894 846
f 846 894 895
f 846 895 847
f 847 895 896
f 847 896 848
f 848 896 897
f 848 897 849
f 849 897 898
f 849 898 850
f 850 898 899
f 850 899 851
f 851 899 900
f 851 900 852
f 852 900 901
f 852 901 853
f 853 901 902
f 853 902 854
f 854 902 903
f 854 903 855
f 855 903 904
f 855 904 856
f 856 904 905
f 856 905 857
f 857 905 906
f 857 906 858
f 858 906 907
f 858 907 859
f 859 907 908
f 859 908 860
f 860 908 909
f 860 909 861
f 861 909 910
f 861 910 862
f 862 910 911
f 862 911 863
f 863 911 912
f 863 912 864
f 864 912 865
f 864 865 817
