# Non-ideal AFM tip: subtle asymmetric wear, tilt, facets, and worn shoulder.
# Coordinates are nanometres; Y is height.
o tip_subtle_worn_tilted
v 0.00000 0.00000 0.00000
v 0.00000 0.00000 0.00000
v 0.00000 0.00000 0.00000
v 0.00000 0.00000 0.00000
v 0.00000 0.00000 0.00000
v 0.00000 0.00000 0.00000
v 0.00000 0.00000 0.00000
v 0.00000 0.00000 0.00000
v 0.00000 0.00000 0.00000
v 0.00000 0.00000 0.00000
v 0.00000 0.00000 0.00000
v 0.00000 0.00000 0.00000
v 0.00000 0.00000 0.00000
v -0.00000 0.00000 0.00000
v -0.00000 0.00000 0.00000
v -0.00000 0.00000 0.00000
v -0.00000 0.00000 0.00000
v -0.00000 0.00000 0.00000
v -0.00000 0.00000 0.00000
v -0.00000 0.00000 0.00000
v -0.00000 0.00000 0.00000
v -0.00000 0.00000 0.00000
v -0.00000 0.00000 0.00000
v -0.00000 0.00000 0.00000
v -0.00000 0.00000 0.00000
v -0.00000 0.00000 -0.00000
v -0.00000 0.00000 -0.00000
v -0.00000 0.00000 -0.00000
v -0.00000 0.00000 -0.00000
v -0.00000 0.00000 -0.00000
v -0.00000 0.00000 -0.00000
v -0.00000 0.00000 -0.00000
v -0.00000 0.00000 -0.00000
v -0.00000 0.00000 -0.00000
v -0.00000 0.00000 -0.00000
v -0.00000 0.00000 -0.00000
v -0.00000 0.00000 -0.00000
v 0.00000 0.00000 -0.00000
v 0.00000 0.00000 -0.00000
v 0.00000 0.00000 -0.00000
v 0.00000 0.00000 -0.00000
v 0.00000 0.00000 -0.00000
v 0.00000 0.00000 -0.00000
v 0.00000 0.00000 -0.00000
v 0.00000 0.00000 -0.00000
v 0.00000 0.00000 -0.00000
v 0.00000 0.00000 -0.00000
v 0.00000 0.00000 -0.00000
v 2.11111 1.84885 0.00000
v 2.09305 1.84226 0.27556
v 2.03918 1.84754 0.54640
v 1.95041 1.86234 0.80789
v 1.82828 1.88333 1.05556
v 1.67486 1.90676 1.28516
v 1.49278 1.92905 1.49278
v 1.28516 1.94701 1.67486
v 1.05556 1.95809 1.82828
v 0.80789 1.96034 1.95041
v 0.54640 1.95243 2.03918
v 0.27556 1.93360 2.09305
v 0.00000 1.90360 2.11111
v -0.27556 1.86272 2.09305
v -0.54640 1.81172 2.03918
v -0.80789 1.75187 1.95041
v -1.05556 1.68500 1.82828
v -1.28516 1.61349 1.67486
v -1.49278 1.54035 1.49278
v -1.67486 1.46916 1.28516
v -1.82828 1.40406 1.05556
v -1.95041 1.34953 0.80789
v -2.03918 1.31004 0.54640
v -2.09305 1.28951 0.27556
v -2.11111 1.29067 0.00000
v -2.09305 1.31449 -0.27556
v -2.03918 1.35995 -0.54640
v -1.95041 1.42421 -0.80789
v -1.82828 1.50314 -1.05556
v -1.67486 1.59193 -1.28516
v -1.49278 1.68564 -1.49278
v -1.28516 1.77955 -1.67486
v -1.05556 1.86939 -1.82828
v -0.80789 1.95151 -1.95041
v -0.54640 2.02288 -2.03918
v -0.27556 2.08118 -2.09305
v -0.00000 2.12479 -2.11111
v 0.27556 2.15283 -2.09305
v 0.54640 2.16509 -2.03918
v 0.80789 2.16213 -1.95041
v 1.05556 2.14516 -1.82828
v 1.28516 2.11611 -1.67486
v 1.49278 2.07756 -1.49278
v 1.67486 2.03271 -1.28516
v 1.82828 1.98531 -1.05556
v 1.95041 1.93944 -0.80789
v 2.03918 1.89918 -0.54640
v 2.09305 1.86814 -0.27556
v 4.22222 4.06163 0.00000
v 4.18610 4.04707 0.55111
v 4.07835 4.05542 1.09279
v 3.90082 4.08210 1.61577
v 3.65655 4.12057 2.11111
v 3.34971 4.16353 2.57033
v 2.98556 4.20401 2.98556
v 2.57033 4.23596 3.34971
v 2.11111 4.25455 3.65655
v 1.61577 4.25624 3.90082
v 1.09279 4.23864 4.07835
v 0.55111 4.20039 4.18610
v 0.00000 4.14106 4.22222
v -0.55111 4.06107 4.18610
v -1.09279 3.96167 4.07835
v -1.61577 3.84502 3.90082
v -2.11111 3.71430 3.65655
v -2.57033 3.57384 3.34971
v -2.98556 3.42925 2.98556
v -3.34971 3.28747 2.57033
v -3.65655 3.15667 2.11111
v -3.90082 3.04592 1.61577
v -4.07835 2.96440 1.09279
v -4.18610 2.92034 0.55111
v -4.22222 2.91966 0.00000
v -4.18610 2.96476 -0.55111
v -4.07835 3.05395 -1.09279
v -3.90082 3.18183 -1.61577
v -3.65655 3.34023 -2.11111
v -3.34971 3.51947 -2.57033
v -2.98556 3.70940 -2.98556
v -2.57033 3.90024 -3.34971
v -2.11111 4.08308 -3.65655
v -1.61577 4.25017 -3.90082
v -1.09279 4.39520 -4.07835
v -0.55111 4.51335 -4.18610
v -0.00000 4.60140 -4.22222
v 0.55111 4.65773 -4.18610
v 1.09279 4.68228 -4.07835
v 1.61577 4.67648 -3.90082
v 2.11111 4.64311 -3.65655
v 2.57033 4.58619 -3.34971
v 2.98556 4.51090 -2.98556
v 3.34971 4.42346 -2.57033
v 3.65655 4.33101 -2.11111
v 3.90082 4.24130 -1.61577
v 4.07835 4.16219 -1.09279
v 4.18610 4.10064 -0.55111
v 6.33333 6.31242 0.00000
v 6.27915 6.28008 0.82667
v 6.11753 6.28224 1.63919
v 5.85124 6.31311 2.42366
v 5.48483 6.36307 3.16667
v 5.02457 6.42091 3.85549
v 4.47834 6.47581 4.47834
v 3.85549 6.51850 5.02457
v 3.16667 6.54187 5.48483
v 2.42366 6.54088 5.85124
v 1.63919 6.51231 6.11753
v 0.82667 6.45440 6.27915
v 0.00000 6.36659 6.33333
v -0.82667 6.24935 6.27915
v -1.63919 6.10419 6.11753
v -2.42366 5.93377 5.85124
v -3.16667 5.74220 5.48483
v -3.85549 5.53531 5.02457
v -4.47834 5.32094 4.47834
v -5.02457 5.10913 3.85549
v -5.48483 4.91203 3.16667
v -5.85124 4.74334 2.42366
v -6.11753 4.61726 1.63919
v -6.27915 4.54670 0.82667
v -6.33333 4.54119 0.00000
v -6.27915 4.60500 -0.82667
v -6.11753 4.73618 -1.63919
v -5.85124 4.92701 -2.42366
v -5.48483 5.16534 -3.16667
v -5.02457 5.43650 -3.85549
v -4.47834 5.72490 -4.47834
v -3.85549 6.01531 -5.02457
v -3.16667 6.29372 -5.48483
v -2.42366 6.54792 -5.85124
v -1.63919 6.76800 -6.11753
v -0.82667 6.94661 -6.27915
v -0.00000 7.07913 -6.33333
v 0.82667 7.16377 -6.27915
v 1.63919 7.20143 -6.11753
v 2.42366 7.19535 -5.85124
v 3.16667 7.15066 -5.48483
v 3.85549 7.07376 -5.02457
v 4.47834 6.97177 -4.47834
v 5.02457 6.85233 -3.85549
v 5.48483 6.72368 -3.16667
v 5.85124 6.59510 -2.42366
v 6.11753 6.47691 -1.63919
v 6.27915 6.37970 -0.82667
v 8.44444 8.41893 0.00000
v 8.37220 8.34389 1.10222
v 8.15671 8.32034 2.18558
v 7.80165 8.34304 3.23155
v 7.31310 8.39789 4.22222
v 6.69943 8.46726 5.14065
v 5.97112 8.53437 5.97112
v 5.14065 8.58575 6.69943
v 4.22222 8.61176 7.31310
v 3.23155 8.60616 7.80165
v 2.18558 8.56529 8.15671
v 1.10222 8.48731 8.37220
v 0.00000 8.37169 8.44444
v -1.10222 8.21892 8.37220
v -2.18558 8.03050 8.15671
v -3.23155 7.80925 7.80165
v -4.22222 7.55976 7.31310
v -5.14065 7.28891 6.69943
v -5.97112 7.00641 5.97112
v -6.69943 6.72514 5.14065
v -7.31310 6.46111 4.22222
v -7.80165 6.23280 3.23155
v -8.15671 6.05965 2.18558
v -8.37220 5.95962 1.10222
v -8.44444 5.94634 0.00000
v -8.37220 6.02637 -1.10222
v -8.15671 6.19790 -2.18558
v -7.80165 6.45108 -3.23155
v -7.31310 6.76991 -4.22222
v -6.69943 7.13461 -5.14065
v -5.97112 7.52386 -5.97112
v -5.14065 7.91655 -6.69943
v -4.22222 8.29307 -7.31310
v -3.23155 8.63626 -7.80165
v -2.18558 8.93216 -8.15671
v -1.10222 9.17064 -8.37220
v -0.00000 9.34582 -8.44444
v 1.10222 9.45634 -8.37220
v 2.18558 9.50537 -8.15671
v 3.23155 9.50011 -7.80165
v 4.22222 9.45068 -7.31310
v 5.14065 9.36807 -6.69943
v 5.97112 9.26171 -5.97112
v 6.69943 9.13742 -5.14065
v 7.31310 8.99775 -4.22222
v 7.80165 8.84527 -3.23155
v 8.15671 8.68738 -2.18558
v 8.37220 8.53887 -1.10222
v 10.55556 10.40297 0.00000
v 10.46525 10.24278 1.37778
v 10.19588 10.16599 2.73198
v 9.75206 10.16818 4.03944
v 9.14138 10.22471 5.27778
v 8.37429 10.30538 6.42582
v 7.46390 10.38422 7.46390
v 6.42582 10.44270 8.37429
v 5.27778 10.46908 9.14138
v 4.03944 10.45661 9.75206
v 2.73198 10.40182 10.19588
v 1.37778 10.30317 10.46525
v 0.00000 10.16030 10.55556
v -1.37778 9.97362 10.46525
v -2.73198 9.74443 10.19588
v -4.03944 9.47529 9.75206
v -5.27778 9.17081 9.14138
v -6.42582 8.83848 8.37429
v -7.46390 8.48948 7.46390
v -8.37429 8.13931 6.42582
v -9.14138 7.80776 5.27778
v -9.75206 7.51814 4.03944
v -10.19588 7.29540 2.73198
v -10.46525 7.16296 1.37778
v -10.55556 7.13897 0.00000
v -10.46525 7.23276 -1.37778
v -10.19588 7.44300 -2.73198
v -9.75206 7.75800 -4.03944
v -9.14138 8.15797 -5.27778
v -8.37429 8.61793 -6.42582
v -7.46390 9.11055 -7.46390
v -6.42582 9.60846 -8.37429
v -5.27778 10.08593 -9.14138
v -4.03944 10.52028 -9.75206
v -2.73198 10.89300 -10.19588
v -1.37778 11.19066 -10.46525
v -0.00000 11.40573 -10.55556
v 1.37778 11.53722 -10.46525
v 2.73198 11.59125 -10.19588
v 4.03944 11.58113 -9.75206
v 5.27778 11.52632 -9.14138
v 6.42582 11.44882 -8.37429
v 7.46390 11.36599 -7.46390
v 8.37429 11.28158 -6.42582
v 9.14138 11.18125 -5.27778
v 9.75206 11.04107 -4.03944
v 10.19588 10.84848 -2.73198
v 10.46525 10.62086 -1.37778
v 12.66667 12.34481 0.00000
v 12.55830 12.04931 1.65333
v 12.23506 11.89510 3.27837
v 11.70247 11.87282 4.84732
v 10.96966 11.93440 6.33333
v 10.04914 12.02905 7.71098
v 8.95669 12.11951 8.95669
v 7.71098 12.18300 10.04914
v 6.33333 12.20694 10.96966
v 4.84732 12.18503 11.70247
v 3.27837 12.11454 12.23506
v 1.65333 11.99457 12.55830
v 0.00000 11.82500 12.66667
v -1.65333 11.60608 12.55830
v -3.27837 11.33860 12.23506
v -4.84732 11.02451 11.70247
v -6.33333 10.66798 10.96966
v -7.71098 10.27666 10.04914
v -8.95669 9.86283 8.95669
v -10.04914 9.44432 7.71098
v -10.96966 9.04463 6.33333
v -11.70247 8.69202 4.84732
v -12.23506 8.41717 3.27837
v -12.55830 8.24938 1.65333
v -12.66667 8.21174 0.00000
v -12.55830 8.31681 -1.65333
v -12.23506 8.56411 -3.27837
v -11.70247 8.94039 -4.84732
v -10.96966 9.42214 -6.33333
v -10.04914 9.97910 -7.71098
v -8.95669 10.57769 -8.95669
v -7.71098 11.18386 -10.04914
v -6.33333 11.76532 -10.96966
v -4.84732 12.29341 -11.70247
v -3.27837 12.74455 -12.23506
v -1.65333 13.10153 -12.55830
v -0.00000 13.35456 -12.66667
v 1.65333 13.50223 -12.55830
v 3.27837 13.55274 -12.23506
v 4.84732 13.52531 -11.70247
v 6.33333 13.45124 -10.96966
v 7.71098 13.37134 -10.04914
v 8.95669 13.32425 -8.95669
v 10.04914 13.32279 -7.71098
v 10.96966 13.33000 -6.33333
v 11.70247 13.26520 -4.84732
v 12.23506 13.05883 -3.27837
v 12.55830 12.71999 -1.65333
v 14.77778 14.26128 0.00000
v 14.65135 13.79710 1.92889
v 14.27424 13.56171 3.82477
v 13.65289 13.52561 5.65521
v 12.79793 13.60149 7.38889
v 11.72400 13.71326 8.99614
v 10.44947 13.81422 10.44947
v 8.99614 13.87980 11.72400
v 7.38889 13.89812 12.79793
v 5.65521 13.86410 13.65289
v 3.82477 13.77616 14.27424
v 1.92889 13.63424 14.65135
v 0.00000 13.43855 14.77778
v -1.92889 13.18907 14.65135
v -3.82477 12.88582 14.27424
v -5.65521 12.52973 13.65289
v -7.38889 12.12410 12.79793
v -8.99614 11.67627 11.72400
v -10.44947 11.19927 10.44947
v -11.72400 10.71298 8.99614
v -12.79793 10.24454 7.38889
v -13.65289 9.82725 5.65521
v -14.27424 9.49779 3.82477
v -14.65135 9.29168 1.92889
v -14.77778 9.23744 0.00000
v -14.65135 9.35130 -1.92889
v -14.27424 9.63403 -3.82477
v -13.65289 10.07104 -5.65521
v -12.79793 10.63520 -7.38889
v -11.72400 11.29088 -8.99614
v -10.44947 11.99800 -10.44947
v -8.99614 12.71546 -11.72400
v -7.38889 13.40401 -12.79793
v -5.65521 14.02852 -13.65289
v -3.82477 14.56002 -14.27424
v -1.92889 14.97721 -14.65135
v -0.00000 15.26769 -14.77778
v 1.92889 15.42897 -14.65135
v 3.82477 15.46977 -14.27424
v 5.65521 15.41252 -13.65289
v 7.38889 15.29746 -12.79793
v 8.99614 15.18571 -11.72400
v 10.44947 15.15019 -10.44947
v 11.72400 15.23726 -8.99614
v 12.79793 15.40298 -7.38889
v 13.65289 15.48724 -5.65521
v 14.27424 15.30976 -3.82477
v 14.65135 14.84237 -1.92889
v 16.88889 16.09754 0.00000
v 16.74440 15.47639 2.20444
v 16.31341 15.18770 4.37117
v 15.60330 15.16138 6.46310
v 14.62621 15.26192 8.44444
v 13.39886 15.39196 10.28130
v 11.94225 15.50087 11.94225
v 10.28130 15.56515 13.39886
v 8.44444 15.57462 14.62621
v 6.46310 15.52586 15.60330
v 4.37117 15.41877 16.31341
v 2.20444 15.25433 16.74440
v 0.00000 15.03312 16.88889
v -2.20444 14.75476 16.74440
v -4.37117 14.41825 16.31341
v -6.46310 14.02312 15.60330
v -8.44444 13.57134 14.62621
v -10.28130 13.06950 13.39886
v -11.94225 12.53096 11.94225
v -13.39886 11.97748 10.28130
v -14.62621 11.43968 8.44444
v -15.60330 10.95600 6.46310
v -16.31341 10.56942 4.37117
v -16.74440 10.32204 2.20444
v -16.88889 10.24826 0.00000
v -16.74440 10.36842 -2.20444
v -16.31341 10.68492 -4.37117
v -15.60330 11.18209 -6.46310
v -14.62621 11.82928 -8.44444
v -13.39886 12.58539 -10.28130
v -11.94225 13.40357 -11.94225
v -10.28130 14.23533 -13.39886
v -8.44444 15.03398 -14.62621
v -6.46310 15.75757 -15.60330
v -4.37117 16.37136 -16.31341
v -2.20444 16.84981 -16.74440
v -0.00000 17.17792 -16.88889
v 2.20444 17.35209 -16.74440
v 4.37117 17.38093 -16.31341
v 6.46310 17.28738 -15.60330
v 8.44444 17.11441 -14.62621
v 10.28130 16.93483 -13.39886
v 11.94225 16.85460 -11.94225
v 13.39886 16.97540 -10.28130
v 14.62621 17.28633 -8.44444
v 15.60330 17.56133 -6.46310
v 16.31341 17.46574 -4.37117
v 16.74440 16.88787 -2.20444
v 19.00000 17.78447 0.00000
v 18.83745 17.07448 2.48000
v 18.35259 16.78683 4.91756
v 17.55371 16.79700 7.27099
v 16.45448 16.92856 9.50000
v 15.07371 17.07526 11.56647
v 13.43503 17.18876 13.43503
v 11.56647 17.24833 15.07371
v 9.50000 17.24584 16.45448
v 7.27099 17.17980 17.55371
v 4.91756 17.05189 18.35259
v 2.48000 16.86434 18.83745
v 0.00000 16.61822 19.00000
v -2.48000 16.31268 18.83745
v -4.91756 15.94542 18.35259
v -7.27099 15.51421 17.55371
v -9.50000 15.01922 16.45448
v -11.56647 14.46586 15.07371
v -13.43503 13.86745 13.43503
v -15.07371 13.24733 11.56647
v -16.45448 12.63957 9.50000
v -17.55371 12.08782 7.27099
v -18.35259 11.64160 4.91756
v -18.83745 11.34998 2.48000
v -19.00000 11.25372 0.00000
v -18.83745 11.37769 -2.48000
v -18.35259 11.72630 -4.91756
v -17.55371 12.28308 -7.27099
v -16.45448 13.01390 -9.50000
v -15.07371 13.87213 -11.56647
v -13.43503 14.80390 -13.43503
v -11.56647 15.75294 -15.07371
v -9.50000 16.66467 -16.45448
v -7.27099 17.48989 -17.55371
v -4.91756 18.18777 -18.35259
v -2.48000 18.72836 -18.83745
v -0.00000 19.09417 -19.00000
v 2.48000 19.28088 -18.83745
v 4.91756 19.29752 -18.35259
v 7.27099 19.16715 -17.55371
v 9.50000 18.93114 -16.45448
v 11.56647 18.66167 -15.07371
v 13.43503 18.47933 -13.43503
v 15.07371 18.53792 -11.56647
v 16.45448 18.89940 -9.50000
v 17.55371 19.33097 -7.27099
v 18.35259 19.35060 -4.91756
v 18.83745 18.72047 -2.48000
v 21.11111 19.29666 0.00000
v 20.93050 18.60344 2.75555
v 20.39177 18.37664 5.46396
v 19.50412 18.44183 8.07887
v 18.28276 18.60485 10.55556
v 16.74857 18.76488 12.85163
v 14.92781 18.87959 14.92781
v 12.85163 18.93120 16.74857
v 10.55556 18.91373 18.28276
v 8.07887 18.82791 19.50412
v 5.46396 18.67751 20.39177
v 2.75555 18.46629 20.93050
v 0.00000 18.19587 21.11111
v -2.75555 17.86483 20.93050
v -5.46396 17.46935 20.39177
v -8.07887 17.00500 19.50412
v -10.55556 16.46976 18.28276
v -12.85163 15.86737 16.74857
v -14.92781 15.21075 14.92781
v -16.74857 14.52454 12.85163
v -18.28276 13.84621 10.55556
v -19.50412 13.22471 8.07887
v -20.39177 12.71633 5.46396
v -20.93050 12.37753 2.75555
v -21.11111 12.25582 0.00000
v -20.93050 12.38111 -2.75555
v -20.39177 12.76019 -5.46396
v -19.50412 13.37600 -8.07887
v -18.28276 14.19107 -10.55556
v -16.74857 15.15311 -12.85163
v -14.92781 16.20099 -14.92781
v -12.85163 17.27026 -16.74857
v -10.55556 18.29804 -18.28276
v -8.07887 19.22739 -19.50412
v -5.46396 20.01107 -20.39177
v -2.75555 20.61450 -20.93050
v -0.00000 21.01773 -21.11111
v 2.75555 21.21617 -20.93050
v 5.46396 21.22016 -20.39177
v 8.07887 21.05428 -19.50412
v 10.55556 20.75853 -18.28276
v 12.85163 20.39773 -16.74857
v 14.92781 20.08491 -14.92781
v 16.74857 19.99551 -12.85163
v 18.28276 20.27022 -10.55556
v 19.50412 20.74443 -8.07887
v 20.39177 20.86415 -5.46396
v 20.93050 20.26004 -2.75555
v 23.22222 20.67303 0.00000
v 23.02355 20.09895 3.03111
v 22.43094 19.97490 6.01035
v 21.45454 20.10024 8.88676
v 20.11103 20.29086 11.61111
v 18.42343 20.46061 14.13679
v 16.42059 20.57344 16.42059
v 14.13679 20.61401 18.42343
v 11.61111 20.57858 20.11103
v 8.88676 20.47047 21.45454
v 6.01035 20.29593 22.43094
v 3.03111 20.06049 23.02355
v 0.00000 19.76637 23.22222
v -3.03111 19.41153 23.02355
v -6.01035 18.99033 22.43094
v -8.88676 18.49582 21.45454
v -11.61111 17.92327 20.11103
v -14.13679 17.27434 18.42343
v -16.42059 16.56115 16.42059
v -18.42343 15.80944 14.13679
v -20.11103 15.05992 11.61111
v -21.45454 14.36697 8.88676
v -22.43094 13.79392 6.01035
v -23.02355 13.40497 3.03111
v -23.22222 13.25488 0.00000
v -23.02355 13.37900 -3.03111
v -22.43094 13.78688 -6.01035
v -21.45454 14.46117 -8.88676
v -20.11103 15.36109 -11.61111
v -18.42343 16.42864 -14.13679
v -16.42059 17.59514 -16.42059
v -14.13679 18.78760 -18.42343
v -11.61111 19.93437 -20.11103
v -8.88676 20.97036 -21.45454
v -6.01035 21.84150 -22.43094
v -3.03111 22.50837 -23.02355
v -0.00000 22.94854 -23.22222
v 3.03111 23.15737 -23.02355
v 6.01035 23.14731 -22.43094
v 8.88676 22.94610 -21.45454
v 11.61111 22.59520 -20.11103
v 14.13679 22.15343 -18.42343
v 16.42059 21.71550 -16.42059
v 18.42343 21.44282 -14.13679
v 20.11103 21.52019 -11.61111
v 21.45454 21.89299 -8.88676
v 22.43094 22.04825 -6.01035
v 23.02355 21.53470 -3.03111
v 25.33333 21.99417 0.00000
v 25.11660 21.60137 3.30666
v 24.47012 21.59286 6.55675
v 23.40495 21.77258 9.69465
v 21.93931 21.98567 12.66667
v 20.09828 22.16208 15.42196
v 17.91337 22.27023 17.91337
v 15.42196 22.29676 20.09828
v 12.66667 22.24042 21.93931
v 9.69465 22.10754 23.40495
v 6.55675 21.90721 24.47012
v 3.30666 21.64696 25.11660
v 0.00000 21.32976 25.33333
v -3.30666 20.95281 25.11660
v -6.55675 20.50841 24.47012
v -9.69465 19.98668 23.40495
v -12.66667 19.37978 21.93931
v -15.42196 18.68680 20.09828
v -17.91337 17.91870 17.91337
v -20.09828 17.10205 15.42196
v -21.93931 16.28074 12.66667
v -23.40495 15.51465 9.69465
v -24.47012 14.87441 6.55675
v -25.11660 14.43236 3.30666
v -25.33333 14.25093 0.00000
v -25.11660 14.37139 -3.30666
v -24.47012 14.80643 -6.55675
v -23.40495 15.53861 -9.69465
v -21.93931 16.52401 -12.66667
v -20.09828 17.69874 -15.42196
v -17.91337 18.98639 -17.91337
v -15.42196 20.30499 -20.09828
v -12.66667 21.57371 -21.93931
v -9.69465 22.71882 -23.40495
v -6.55675 23.67908 -24.47012
v -3.30666 24.40997 -25.11660
v -0.00000 24.88650 -25.33333
v 3.30666 25.10413 -25.11660
v 6.55675 25.07791 -24.47012
v 9.69465 24.83991 -23.40495
v 12.66667 24.43584 -21.93931
v 15.42196 23.92374 -20.09828
v 17.91337 23.38293 -17.91337
v 20.09828 22.94280 -15.42196
v 21.93931 22.78458 -12.66667
v 23.40495 22.95076 -9.69465
v 24.47012 23.05943 -6.55675
v 25.11660 22.66329 -3.30666
v 27.44444 23.33953 0.00000
v 27.20965 23.13778 3.58222
v 26.50930 23.23324 7.10314
v 25.35536 23.45716 10.50253
v 23.76759 23.68844 13.72222
v 21.77314 23.86907 16.70712
v 19.40615 23.96993 19.40615
v 16.70712 23.97946 21.77314
v 13.72222 23.89926 23.76759
v 10.50253 23.73911 25.35536
v 7.10314 23.51134 26.50930
v 3.58222 23.22572 27.20965
v 0.00000 22.88605 27.44444
v -3.58222 22.48868 27.20965
v -7.10314 22.02359 26.50930
v -10.50253 21.47761 25.35536
v -13.72222 20.83929 23.76759
v -16.70712 20.10476 21.77314
v -19.40615 19.28340 19.40615
v -21.77314 18.40237 16.70712
v -23.76759 17.50866 13.72222
v -25.35536 16.66774 10.50253
v -26.50930 15.95780 7.10314
v -27.20965 15.45969 3.58222
v -27.44444 15.24398 0.00000
v -27.20965 15.35828 -3.58222
v -26.50930 15.81882 -7.10314
v -25.35536 16.60834 -10.50253
v -23.76759 17.67981 -13.72222
v -21.77314 18.96344 -16.70712
v -19.40615 20.37473 -19.40615
v -16.70712 21.82244 -21.77314
v -13.72222 23.21605 -23.76759
v -10.50253 24.47277 -25.35536
v -7.10314 25.52381 -26.50930
v -3.58222 26.31929 -27.20965
v -0.00000 26.83157 -27.44444
v 3.58222 27.05634 -27.20965
v 7.10314 27.01156 -26.50930
v 10.50253 26.73432 -25.35536
v 13.72222 26.27634 -23.76759
v 16.70712 25.69955 -21.77314
v 19.40615 25.07682 -19.40615
v 21.77314 24.50869 -16.70712
v 23.76759 24.14337 -13.72222
v 25.35536 24.07411 -10.50253
v 26.50930 24.07734 -7.10314
v 27.20965 23.78770 -3.58222
v 29.55556 24.75549 0.00000
v 29.30270 24.71608 3.85777
v 28.54847 24.89308 7.64954
v 27.30577 25.15202 11.31042
v 25.59586 25.39867 14.77778
v 23.44800 25.58152 17.99228
v 20.89893 25.67254 20.89893
v 17.99228 25.66210 23.44800
v 14.77778 25.55509 25.59586
v 11.31042 25.36519 27.30577
v 7.64954 25.10831 28.54847
v 3.85777 24.79677 29.30270
v 0.00000 24.43523 29.55556
v -3.85777 24.01912 29.30270
v -7.64954 23.53587 28.54847
v -11.31042 22.96859 27.30577
v -14.77778 22.30180 25.59586
v -17.99228 21.52821 23.44800
v -20.89893 20.65525 20.89893
v -23.44800 19.71041 17.99228
v -25.59586 18.74369 14.77778
v -27.30577 17.82625 11.31042
v -28.54847 17.04408 7.64954
v -29.30270 16.48696 3.85777
v -29.55556 16.23402 0.00000
v -29.30270 16.33968 -3.85777
v -28.54847 16.82407 -7.64954
v -27.30577 17.67036 -11.31042
v -25.59586 18.82851 -14.77778
v -23.44800 20.22271 -17.99228
v -20.89893 21.76017 -20.89893
v -17.99228 23.33994 -23.44800
v -14.77778 24.86139 -25.59586
v -11.31042 26.23223 -27.30577
v -7.64954 27.37569 -28.54847
v -3.85777 28.23632 -29.30270
v -0.00000 28.78374 -29.55556
v 3.85777 29.01397 -29.30270
v 7.64954 28.94813 -28.54847
v 11.31042 28.62884 -27.30577
v 14.77778 28.11473 -25.59586
v 17.99228 27.47438 -23.44800
v 20.89893 26.78193 -20.89893
v 23.44800 26.12208 -17.99228
v 25.59586 25.60728 -14.77778
v 27.30577 25.33837 -11.31042
v 28.54847 25.22098 -7.64954
v 29.30270 25.00755 -3.85777
v 31.66667 26.25012 0.00000
v 31.39575 26.33038 4.13333
v 30.58765 26.56773 8.19594
v 29.25619 26.85576 12.11831
v 27.42414 27.11612 15.83333
v 25.12286 27.29939 19.27745
v 22.39171 27.37804 22.39171
v 19.27745 27.34468 25.12286
v 15.83333 27.20792 27.42414
v 12.11831 26.98577 29.25619
v 8.19594 26.69814 30.58765
v 4.13333 26.36010 31.39575
v 0.00000 25.97730 31.66667
v -4.13333 25.54415 31.39575
v -8.19594 25.04525 30.58765
v -12.11831 24.45962 29.25619
v -15.83333 23.76733 27.42414
v -19.27745 22.95716 25.12286
v -22.39171 22.03425 22.39171
v -25.12286 21.02617 19.27745
v -27.42414 19.98583 15.83333
v -29.25619 18.99017 12.11831
v -30.58765 18.13327 8.19594
v -31.39575 17.51418 4.13333
v -31.66667 17.22105 0.00000
v -31.39575 17.31558 -4.13333
v -30.58765 17.82216 -8.19594
v -29.25619 18.72466 -12.11831
v -27.42414 19.97010 -15.83333
v -25.12286 21.47657 -19.27745
v -22.39171 23.14272 -22.39171
v -19.27745 24.85751 -25.12286
v -15.83333 26.50974 -27.42414
v -12.11831 27.99718 -29.25619
v -8.19594 29.23472 -30.58765
v -4.13333 30.16107 -31.39575
v -0.00000 30.74303 -31.66667
v 4.13333 30.97702 -31.39575
v 8.19594 30.88761 -30.58765
v 12.11831 30.52333 -29.25619
v 15.83333 29.95034 -27.42414
v 19.27745 29.24513 -25.12286
v 22.39171 28.48758 -22.39171
v 25.12286 27.75837 -19.27745
v 27.42414 27.14656 -15.83333
v 29.25619 26.73996 -12.11831
v 30.58765 26.52267 -8.19594
v 31.39575 26.35576 -4.13333
v 33.77778 27.80729 0.00000
v 33.48880 27.97000 4.40888
v 32.62683 28.25340 8.74233
v 31.20660 28.56766 12.92620
v 29.25241 28.84071 16.88889
v 26.79771 29.02268 20.56261
v 23.88450 29.08645 23.88450
v 20.56261 29.02721 26.79771
v 16.88889 28.85774 29.25241
v 12.92620 28.60086 31.20660
v 8.74233 28.28081 32.62683
v 4.40888 27.91571 33.48880
v 0.00000 27.51226 33.77778
v -4.40888 27.06377 33.48880
v -8.74233 26.55173 32.62683
v -12.92620 25.95071 31.20660
v -16.88889 25.23585 29.25241
v -20.56261 24.39160 26.79771
v -23.88450 23.42041 23.88450
v -26.79771 22.34964 20.56261
v -29.25241 21.23508 16.88889
v -31.20660 20.15951 12.92620
v -32.62683 19.22536 8.74233
v -33.48880 18.54134 4.40888
v -33.77778 18.20509 0.00000
v -33.48880 18.28598 -4.40888
v -32.62683 18.81310 -8.74233
v -31.20660 19.77124 -12.92620
v -29.25241 21.10459 -16.88889
v -26.79771 22.72501 -20.56261
v -23.88450 24.52236 -23.88450
v -20.56261 26.37512 -26.79771
v -16.88889 28.16109 -29.25241
v -12.92620 29.76762 -31.20660
v -8.74233 31.10091 -32.62683
v -4.40888 32.09354 -33.48880
v -0.00000 32.70942 -33.77778
v 4.40888 32.94548 -33.48880
v 8.74233 32.82999 -32.62683
v 12.92620 32.41776 -31.20660
v 16.88889 31.78299 -29.25241
v 20.56261 31.01075 -26.79771
v 23.88450 30.18862 -23.88450
v 26.79771 29.40025 -20.56261
v 29.25241 28.72495 -16.88889
v 31.20660 28.23606 -12.92620
v 32.62683 27.95381 -8.74233
v 33.48880 27.81473 -4.40888
v 35.88889 29.40456 0.00000
v 35.58185 29.62565 4.68444
v 34.66600 29.94787 9.28873
v 33.15701 30.28742 13.73408
v 31.08069 30.57241 17.94444
v 28.47257 30.75138 21.84777
v 25.37728 30.79776 25.37728
v 21.84777 30.70968 28.47257
v 17.94444 30.50456 31.08069
v 13.73408 30.21045 33.15701
v 9.28873 29.85634 34.66600
v 4.68444 29.46361 35.58185
v 0.00000 29.04012 35.88889
v -4.68444 28.57797 35.58185
v -9.28873 28.05530 34.66600
v -13.73408 27.44186 33.15701
v -17.94444 26.70738 31.08069
v -21.84777 25.83154 28.47257
v -25.37728 24.81371 25.37728
v -28.47257 23.68083 21.84777
v -31.08069 22.49143 17.94444
v -33.15701 21.33427 13.73408
v -34.66600 20.32036 9.28873
v -35.58185 19.56845 4.68444
v -35.88889 19.18611 0.00000
v -35.58185 19.25089 -4.68444
v -34.66600 19.79690 -9.28873
v -33.15701 20.81011 -13.73408
v -31.08069 22.23196 -17.94444
v -28.47257 23.96804 -21.84777
v -25.37728 25.89910 -25.37728
v -21.84777 27.89280 -28.47257
v -17.94444 29.81545 -31.08069
v -13.73408 31.54356 -33.15701
v -9.28873 32.97424 -34.66600
v -4.68444 34.03372 -35.58185
v -0.00000 34.68292 -35.88889
v 4.68444 34.91936 -35.58185
v 9.28873 34.77527 -34.66600
v 13.73408 34.31215 -33.15701
v 17.94444 33.61263 -31.08069
v 21.84777 32.77094 -28.47257
v 25.37728 31.88319 -25.37728
v 28.47257 31.03907 -21.84777
v 31.08069 30.31697 -17.94444
v 33.15701 29.78183 -13.73408
v 34.66600 29.46606 -9.28873
v 35.58185 29.34728 -4.68444
v 38.00000 31.02391 0.00000
v 37.67490 31.29148 4.96000
v 36.70518 31.65007 9.83512
v 35.10742 32.01493 14.54197
v 32.90897 32.31122 19.00000
v 30.14743 32.48550 23.13293
v 26.87006 32.51197 26.87006
v 23.13293 32.39210 30.14743
v 19.00000 32.14838 32.90897
v 14.54197 31.81454 35.10742
v 9.83512 31.42471 36.70518
v 4.96000 31.00379 37.67490
v 0.00000 30.56087 38.00000
v -4.96000 30.08675 37.67490
v -9.83512 29.55598 36.70518
v -14.54197 28.93307 35.10742
v -19.00000 28.18192 32.90897
v -23.13293 27.27697 30.14743
v -26.87006 26.21416 26.87006
v -30.14743 25.01973 23.13293
v -32.90897 23.75489 19.00000
v -35.10742 22.51444 14.54197
v -36.70518 21.41825 9.83512
v -37.67490 20.59550 4.96000
v -38.00000 20.16414 0.00000
v -37.67490 20.21031 -4.96000
v -36.70518 20.77354 -9.83512
v -35.10742 21.84126 -14.54197
v -32.90897 23.35223 -19.00000
v -30.14743 25.20565 -23.13293
v -26.87006 27.27294 -26.87006
v -23.13293 29.41053 -30.14743
v -19.00000 31.47282 -32.90897
v -14.54197 33.32500 -35.10742
v -9.83512 34.85472 -36.70518
v -4.96000 35.98161 -37.67490
v -0.00000 36.66352 -38.00000
v 4.96000 36.89865 -37.67490
v 9.83512 36.72345 -36.70518
v 14.54197 36.20647 -35.10742
v 19.00000 35.43927 -32.90897
v 23.13293 34.52565 -30.14743
v 26.87006 33.57076 -26.87006
v 30.14743 32.67151 -23.13293
v 32.90897 31.90951 -19.00000
v 35.10742 31.34703 -14.54197
v 36.70518 31.01881 -9.83512
v 37.67490 30.91974 -4.96000
f 1 49 50
f 1 50 2
f 2 50 51
f 2 51 3
f 3 51 52
f 3 52 4
f 4 52 53
f 4 53 5
f 5 53 54
f 5 54 6
f 6 54 55
f 6 55 7
f 7 55 56
f 7 56 8
f 8 56 57
f 8 57 9
f 9 57 58
f 9 58 10
f 10 58 59
f 10 59 11
f 11 59 60
f 11 60 12
f 12 60 61
f 12 61 13
f 13 61 62
f 13 62 14
f 14 62 63
f 14 63 15
f 15 63 64
f 15 64 16
f 16 64 65
f 16 65 17
f 17 65 66
f 17 66 18
f 18 66 67
f 18 67 19
f 19 67 68
f 19 68 20
f 20 68 69
f 20 69 21
f 21 69 70
f 21 70 22
f 22 70 71
f 22 71 23
f 23 71 72
f 23 72 24
f 24 72 73
f 24 73 25
f 25 73 74
f 25 74 26
f 26 74 75
f 26 75 27
f 27 75 76
f 27 76 28
f 28 76 77
f 28 77 29
f 29 77 78
f 29 78 30
f 30 78 79
f 30 79 31
f 31 79 80
f 31 80 32
f 32 80 81
f 32 81 33
f 33 81 82
f 33 82 34
f 34 82 83
f 34 83 35
f 35 83 84
f 35 84 36
f 36 84 85
f 36 85 37
f 37 85 86
f 37 86 38
f 38 86 87
f 38 87 39
f 39 87 88
f 39 88 40
f 40 88 89
f 40 89 41
f 41 89 90
f 41 90 42
f 42 90 91
f 42 91 43
f 43 91 92
f 43 92 44
f 44 92 93
f 44 93 45
f 45 93 94
f 45 94 46
f 46 94 95
f 46 95 47
f 47 95 96
f 47 96 48
f 48 96 49
f 48 49 1
f 49 97 98
f 49 98 50
f 50 98 99
f 50 99 51
f 51 99 100
f 51 100 52
f 52 100 101
f 52 101 53
f 53 101 102
f 53 102 54
f 54 102 103
f 54 103 55
f 55 103 104
f 55 104 56
f 56 104 105
f 56 105 57
f 57 105 106
f 57 106 58
f 58 106 107
f 58 107 59
f 59 107 108
f 59 108 60
f 60 108 109
f 60 109 61
f 61 109 110
f 61 110 62
f 62 110 111
f 62 111 63
f 63 111 112
f 63 112 64
f 64 112 113
f 64 113 65
f 65 113 114
f 65 114 66
f 66 114 115
f 66 115 67
f 67 115 116
f 67 116 68
f 68 116 117
f 68 117 69
f 69 117 118
f 69 118 70
f 70 118 119
f 70 119 71
f 71 119 120
f 71 120 72
f 72 120 121
f 72 121 73
f 73 121 122
f 73 122 74
f 74 122 123
f 74 123 75
f 75 123 124
f 75 124 76
f 76 124 125
f 76 125 77
f 77 125 126
f 77 126 78
f 78 126 127
f 78 127 79
f 79 127 128
f 79 128 80
f 80 128 129
f 80 129 81
f 81 129 130
f 81 130 82
f 82 130 131
f 82 131 83
f 83 131 132
f 83 132 84
f 84 132 133
f 84 133 85
f 85 133 134
f 85 134 86
f 86 134 135
f 86 135 87
f 87 135 136
f 87 136 88
f 88 136 137
f 88 137 89
f 89 137 138
f 89 138 90
f 90 138 139
f 90 139 91
f 91 139 140
f 91 140 92
f 92 140 141
f 92 141 93
f 93 141 142
f 93 142 94
f 94 142 143
f 94 143 95
f 95 143 144
f 95 144 96
f 96 144 97
f 96 97 49
f 97 145 146
f 97 146 98
f 98 146 147
f 98 147 99
f 99 147 148
f 99 148 100
f 100 148 149
f 100 149 101
f 101 149 150
f 101 150 102
f 102 150 151
f 102 151 103
f 103 151 152
f 103 152 104
f 104 152 153
f 104 153 105
f 105 153 154
f 105 154 106
f 106 154 155
f 106 155 107
f 107 155 156
f 107 156 108
f 108 156 157
f 108 157 109
f 109 157 158
f 109 158 110
f 110 158 159
f 110 159 111
f 111 159 160
f 111 160 112
f 112 160 161
f 112 161 113
f 113 161 162
f 113 162 114
f 114 162 163
f 114 163 115
f 115 163 164
f 115 164 116
f 116 164 165
f 116 165 117
f 117 165 166
f 117 166 118
f 118 166 167
f 118 167 119
f 119 167 168
f 119 168 120
f 120 168 169
f 120 169 121
f 121 169 170
f 121 170 122
f 122 170 171
f 122 171 123
f 123 171 172
f 123 172 124
f 124 172 173
f 124 173 125
f 125 173 174
f 125 174 126
f 126 174 175
f 126 175 127
f 127 175 176
f 127 176 128
f 128 176 177
f 128 177 129
f 129 177 178
f 129 178 130
f 130 178 179
f 130 179 131
f 131 179 180
f 131 180 132
f 132 180 181
f 132 181 133
f 133 181 182
f 133 182 134
f 134 182 183
f 134 183 135
f 135 183 184
f 135 184 136
f 136 184 185
f 136 185 137
f 137 185 186
f 137 186 138
f 138 186 187
f 138 187 139
f 139 187 188
f 139 188 140
f 140 188 189
f 140 189 141
f 141 189 190
f 141 190 142
f 142 190 191
f 142 191 143
f 143 191 192
f 143 192 144
f 144 192 145
f 144 145 97
f 145 193 194
f 145 194 146
f 146 194 195
f 146 195 147
f 147 195 196
f 147 196 148
f 148 196 197
f 148 197 149
f 149 197 198
f 149 198 150
f 150 198 199
f 150 199 151
f 151 199 200
f 151 200 152
f 152 200 201
f 152 201 153
f 153 201 202
f 153 202 154
f 154 202 203
f 154 203 155
f 155 203 204
f 155 204 156
f 156 204 205
f 156 205 157
f 157 205 206
f 157 206 158
f 158 206 207
f 158 207 159
f 159 207 208
f 159 208 160
f 160 208 209
f 160 209 161
f 161 209 210
f 161 210 162
f 162 210 211
f 162 211 163
f 163 211 212
f 163 212 164
f 164 212 213
f 164 213 165
f 165 213 214
f 165 214 166
f 166 214 215
f 166 215 167
f 167 215 216
f 167 216 168
f 168 216 217
f 168 217 169
f 169 217 218
f 169 218 170
f 170 218 219
f 170 219 171
f 171 219 220
f 171 220 172
f 172 220 221
f 172 221 173
f 173 221 222
f 173 222 174
f 174 222 223
f 174 223 175
f 175 223 224
f 175 224 176
f 176 224 225
f 176 225 177
f 177 225 226
f 177 226 178
f 178 226 227
f 178 227 179
f 179 227 228
f 179 228 180
f 180 228 229
f 180 229 181
f 181 229 230
f 181 230 182
f 182 230 231
f 182 231 183
f 183 231 232
f 183 232 184
f 184 232 233
f 184 233 185
f 185 233 234
f 185 234 186
f 186 234 235
f 186 235 187
f 187 235 236
f 187 236 188
f 188 236 237
f 188 237 189
f 189 237 238
f 189 238 190
f 190 238 239
f 190 239 191
f 191 239 240
f 191 240 192
f 192 240 193
f 192 193 145
f 193 241 242
f 193 242 194
f 194 242 243
f 194 243 195
f 195 243 244
f 195 244 196
f 196 244 245
f 196 245 197
f 197 245 246
f 197 246 198
f 198 246 247
f 198 247 199
f 199 247 248
f 199 248 200
f 200 248 249
f 200 249 201
f 201 249 250
f 201 250 202
f 202 250 251
f 202 251 203
f 203 251 252
f 203 252 204
f 204 252 253
f 204 253 205
f 205 253 254
f 205 254 206
f 206 254 255
f 206 255 207
f 207 255 256
f 207 256 208
f 208 256 257
f 208 257 209
f 209 257 258
f 209 258 210
f 210 258 259
f 210 259 211
f 211 259 260
f 211 260 212
f 212 260 261
f 212 261 213
f 213 261 262
f 213 262 214
f 214 262 263
f 214 263 215
f 215 263 264
f 215 264 216
f 216 264 265
f 216 265 217
f 217 265 266
f 217 266 218
f 218 266 267
f 218 267 219
f 219 267 268
f 219 268 220
f 220 268 269
f 220 269 221
f 221 269 270
f 221 270 222
f 222 270 271
f 222 271 223
f 223 271 272
f 223 272 224
f 224 272 273
f 224 273 225
f 225 273 274
f 225 274 226
f 226 274 275
f 226 275 227
f 227 275 276
f 227 276 228
f 228 276 277
f 228 277 229
f 229 277 278
f 229 278 230
f 230 278 279
f 230 279 231
f 231 279 280
f 231 280 232
f 232 280 281
f 232 281 233
f 233 281 282
f 233 282 234
f 234 282 283
f 234 283 235
f 235 283 284
f 235 284 236
f 236 284 285
f 236 285 237
f 237 285 286
f 237 286 238
f 238 286 287
f 238 287 239
f 239 287 288
f 239 288 240
f 240 288 241
f 240 241 193
f 241 289 290
f 241 290 242
f 242 290 291
f 242 291 243
f 243 291 292
f 243 292 244
f 244 292 293
f 244 293 245
f 245 293 294
f 245 294 246
f 246 294 295
f 246 295 247
f 247 295 296
f 247 296 248
f 248 296 297
f 248 297 249
f 249 297 298
f 249 298 250
f 250 298 299
f 250 299 251
f 251 299 300
f 251 300 252
f 252 300 301
f 252 301 253
f 253 301 302
f 253 302 254
f 254 302 303
f 254 303 255
f 255 303 304
f 255 304 256
f 256 304 305
f 256 305 257
f 257 305 306
f 257 306 258
f 258 306 307
f 258 307 259
f 259 307 308
f 259 308 260
f 260 308 309
f 260 309 261
f 261 309 310
f 261 310 262
f 262 310 311
f 262 311 263
f 263 311 312
f 263 312 264
f 264 312 313
f 264 313 265
f 265 313 314
f 265 314 266
f 266 314 315
f 266 315 267
f 267 315 316
f 267 316 268
f 268 316 317
f 268 317 269
f 269 317 318
f 269 318 270
f 270 318 319
f 270 319 271
f 271 319 320
f 271 320 272
f 272 320 321
f 272 321 273
f 273 321 322
f 273 322 274
f 274 322 323
f 274 323 275
f 275 323 324
f 275 324 276
f 276 324 325
f 276 325 277
f 277 325 326
f 277 326 278
f 278 326 327
f 278 327 279
f 279 327 328
f 279 328 280
f 280 328 329
f 280 329 281
f 281 329 330
f 281 330 282
f 282 330 331
f 282 331 283
f 283 331 332
f 283 332 284
f 284 332 333
f 284 333 285
f 285 333 334
f 285 334 286
f 286 334 335
f 286 335 287
f 287 335 336
f 287 336 288
f 288 336 289
f 288 289 241
f 289 337 338
f 289 338 290
f 290 338 339
f 290 339 291
f 291 339 340
f 291 340 292
f 292 340 341
f 292 341 293
f 293 341 342
f 293 342 294
f 294 342 343
f 294 343 295
f 295 343 344
f 295 344 296
f 296 344 345
f 296 345 297
f 297 345 346
f 297 346 298
f 298 346 347
f 298 347 299
f 299 347 348
f 299 348 300
f 300 348 349
f 300 349 301
f 301 349 350
f 301 350 302
f 302 350 351
f 302 351 303
f 303 351 352
f 303 352 304
f 304 352 353
f 304 353 305
f 305 353 354
f 305 354 306
f 306 354 355
f 306 355 307
f 307 355 356
f 307 356 308
f 308 356 357
f 308 357 309
f 309 357 358
f 309 358 310
f 310 358 359
f 310 359 311
f 311 359 360
f 311 360 312
f 312 360 361
f 312 361 313
f 313 361 362
f 313 362 314
f 314 362 363
f 314 363 315
f 315 363 364
f 315 364 316
f 316 364 365
f 316 365 317
f 317 365 366
f 317 366 318
f 318 366 367
f 318 367 319
f 319 367 368
f 319 368 320
f 320 368 369
f 320 369 321
f 321 369 370
f 321 370 322
f 322 370 371
f 322 371 323
f 323 371 372
f 323 372 324
f 324 372 373
f 324 373 325
f 325 373 374
f 325 374 326
f 326 374 375
f 326 375 327
f 327 375 376
f 327 376 328
f 328 376 377
f 328 377 329
f 329 377 378
f 329 378 330
f 330 378 379
f 330 379 331
f 331 379 380
f 331 380 332
f 332 380 381
f 332 381 333
f 333 381 382
f 333 382 334
f 334 382 383
f 334 383 335
f 335 383 384
f 335 384 336
f 336 384 337
f 336 337 289
f 337 385 386
f 337 386 338
f 338 386 387
f 338 387 339
f 339 387 388
f 339 388 340
f 340 388 389
f 340 389 341
f 341 389 390
f 341 390 342
f 342 390 391
f 342 391 343
f 343 391 392
f 343 392 344
f 344 392 393
f 344 393 345
f 345 393 394
f 345 394 346
f 346 394 395
f 346 395 347
f 347 395 396
f 347 396 348
f 348 396 397
f 348 397 349
f 349 397 398
f 349 398 350
f 350 398 399
f 350 399 351
f 351 399 400
f 351 400 352
f 352 400 401
f 352 401 353
f 353 401 402
f 353 402 354
f 354 402 403
f 354 403 355
f 355 403 404
f 355 404 356
f 356 404 405
f 356 405 357
f 357 405 406
f 357 406 358
f 358 406 407
f 358 407 359
f 359 407 408
f 359 408 360
f 360 408 409
f 360 409 361
f 361 409 410
f 361 410 362
f 362 410 411
f 362 411 363
f 363 411 412
f 363 412 364
f 364 412 413
f 364 413 365
f 365 413 414
f 365 414 366
f 366 414 415
f 366 415 367
f 367 415 416
f 367 416 368
f 368 416 417
f 368 417 369
f 369 417 418
f 369 418 370
f 370 418 419
f 370 419 371
f 371 419 420
f 371 420 372
f 372 420 421
f 372 421 373
f 373 421 422
f 373 422 374
f 374 422 423
f 374 423 375
f 375 423 424
f 375 424 376
f 376 424 425
f 376 425 377
f 377 425 426
f 377 426 378
f 378 426 427
f 378 427 379
f 379 427 428
f 379 428 380
f 380 428 429
f 380 429 381
f 381 429 430
f 381 430 382
f 382 430 431
f 382 431 383
f 383 431 432
f 383 432 384
f 384 432 385
f 384 385 337
f 385 433 434
f 385 434 386
f 386 434 435
f 386 435 387
f 387 435 436
f 387 436 388
f 388 436 437
f 388 437 389
f 389 437 438
f 389 438 390
f 390 438 439
f 390 439 391
f 391 439 440
f 391 440 392
f 392 440 441
f 392 441 393
f 393 441 442
f 393 442 394
f 394 442 443
f 394 443 395
f 395 443 444
f 395 444 396
f 396 444 445
f 396 445 397
f 397 445 446
f 397 446 398
f 398 446 447
f 398 447 399
f 399 447 448
f 399 448 400
f 400 448 449
f 400 449 401
f 401 449 450
f 401 450 402
f 402 450 451
f 402 451 403
f 403 451 452
f 403 452 404
f 404 452 453
f 404 453 405
f 405 453 454
f 405 454 406
f 406 454 455
f 406 455 407
f 407 455 456
f 407 456 408
f 408 456 457
f 408 457 409
f 409 457 458
f 409 458 410
f 410 458 459
f 410 459 411
f 411 459 460
f 411 460 412
f 412 460 461
f 412 461 413
f 413 461 462
f 413 462 414
f 414 462 463
f 414 463 415
f 415 463 464
f 415 464 416
f 416 464 465
f 416 465 417
f 417 465 466
f 417 466 418
f 418 466 467
f 418 467 419
f 419 467 468
f 419 468 420
f 420 468 469
f 420 469 421
f 421 469 470
f 421 470 422
f 422 470 471
f 422 471 423
f 423 471 472
f 423 472 424
f 424 472 473
f 424 473 425
f 425 473 474
f 425 474 426
f 426 474 475
f 426 475 427
f 427 475 476
f 427 476 428
f 428 476 477
f 428 477 429
f 429 477 478
f 429 478 430
f 430 478 479
f 430 479 431
f 431 479 480
f 431 480 432
f 432 480 433
f 432 433 385
f 433 481 482
f 433 482 434
f 434 482 483
f 434 483 435
f 435 483 484
f 435 484 436
f 436 484 485
f 436 485 437
f 437 485 486
f 437 486 438
f 438 486 487
f 438 487 439
f 439 487 488
f 439 488 440
f 440 488 489
f 440 489 441
f 441 489 490
f 441 490 442
f 442 490 491
f 442 491 443
f 443 491 492
f 443 492 444
f 444 492 493
f 444 493 445
f 445 493 494
f 445 494 446
f 446 494 495
f 446 495 447
f 447 495 496
f 447 496 448
f 448 496 497
f 448 497 449
f 449 497 498
f 449 498 450
f 450 498 499
f 450 499 451
f 451 499 500
f 451 500 452
f 452 500 501
f 452 501 453
f 453 501 502
f 453 502 454
f 454 502 503
f 454 503 455
f 455 503 504
f 455 504 456
f 456 504 505
f 456 505 457
f 457 505 506
f 457 506 458
f 458 506 507
f 458 507 459
f 459 507 508
f 459 508 460
f 460 508 509
f 460 509 461
f 461 509 510
f 461 510 462
f 462 510 511
f 462 511 463
f 463 511 512
f 463 512 464
f 464 512 513
f 464 513 465
f 465 513 514
f 465 514 466
f 466 514 515
f 466 515 467
f 467 515 516
f 467 516 468
f 468 516 517
f 468 517 469
f 469 517 518
f 469 518 470
f 470 518 519
f 470 519 471
f 471 519 520
f 471 520 472
f 472 520 521
f 472 521 473
f 473 521 522
f 473 522 474
f 474 522 523
f 474 523 475
f 475 523 524
f 475 524 476
f 476 524 525
f 476 525 477
f 477 525 526
f 477 526 478
f 478 526 527
f 478 527 479
f 479 527 528
f 479 528 480
f 480 528 481
f 480 481 433
f 481 529 530
f 481 530 482
f 482 530 531
f 482 531 483
f 483 531 532
f 483 532 484
f 484 532 533
f 484 533 485
f 485 533 534
f 485 534 486
f 486 534 535
f 486 535 487
f 487 535 536
f 487 536 488
f 488 536 537
f 488 537 489
f 489 537 538
f 489 538 490
f 490 538 539
f 490 539 491
f 491 539 540
f 491 540 492
f 492 540 541
f 492 541 493
f 493 541 542
f 493 542 494
f 494 542 543
f 494 543 495
f 495 543 544
f 495 544 496
f 496 544 545
f 496 545 497
f 497 545 546
f 497 546 498
f 498 546 547
f 498 547 499
f 499 547 548
f 499 548 500
f 500 548 549
f 500 549 501
f 501 549 550
f 501 550 502
f 502 550 551
f 502 551 503
f 503 551 552
f 503 552 504
f 504 552 553
f 504 553 505
f 505 553 554
f 505 554 506
f 506 554 555
f 506 555 507
f 507 555 556
f 507 556 508
f 508 556 557
f 508 557 509
f 509 557 558
f 509 558 510
f 510 558 559
f 510 559 511
f 511 559 560
f 511 560 512
f 512 560 561
f 512 561 513
f 513 561 562
f 513 562 514
f 514 562 563
f 514 563 515
f 515 563 564
f 515 564 516
f 516 564 565
f 516 565 517
f 517 565 566
f 517 566 518
f 518 566 567
f 518 567 519
f 519 567 568
f 519 568 520
f 520 568 569
f 520 569 521
f 521 569 570
f 521 570 522
f 522 570 571
f 522 571 523
f 523 571 572
f 523 572 524
f 524 572 573
f 524 573 525
f 525 573 574
f 525 574 526
f 526 574 575
f 526 575 527
f 527 575 576
f 527 576 528
f 528 576 529
f 528 529 481
f 529 577 578
f 529 578 530
f 530 578 579
f 530 579 531
f 531 579 580
f 531 580 532
f 532 580 581
f 532 581 533
f 533 581 582
f 533 582 534
f 534 582 583
f 534 583 535
f 535 583 584
f 535 584 536
f 536 584 585
f 536 585 537
f 537 585 586
f 537 586 538
f 538 586 587
f 538 587 539
f 539 587 588
f 539 588 540
f 540 588 589
f 540 589 541
f 541 589 590
f 541 590 542
f 542 590 591
f 542 591 543
f 543 591 592
f 543 592 544
f 544 592 593
f 544 593 545
f 545 593 594
f 545 594 546
f 546 594 595
f 546 595 547
f 547 595 596
f 547 596 548
f 548 596 597
f 548 597 549
f 549 597 598
f 549 598 550
f 550 598 599
f 550 599 551
f 551 599 600
f 551 600 552
f 552 600 601
f 552 601 553
f 553 601 602
f 553 602 554
f 554 602 603
f 554 603 555
f 555 603 604
f 555 604 556
f 556 604 605
f 556 605 557
f 557 605 606
f 557 606 558
f 558 606 607
f 558 607 559
f 559 607 608
f 559 608 560
f 560 608 609
f 560 609 561
f 561 609 610
f 561 610 562
f 562 610 611
f 562 611 563
f 563 611 612
f 563 612 564
f 564 612 613
f 564 613 565
f 565 613 614
f 565 614 566
f 566 614 615
f 566 615 567
f 567 615 616
f 567 616 568
f 568 616 617
f 568 617 569
f 569 617 618
f 569 618 570
f 570 618 619
f 570 619 571
f 571 619 620
f 571 620 572
f 572 620 621
f 572 621 573
f 573 621 622
f 573 622 574
f 574 622 623
f 574 623 575
f 575 623 624
f 575 624 576
f 576 624 577
f 576 577 529
f 577 625 626
f 577 626 578
f 578 626 627
f 578 627 579
f 579 627 628
f 579 628 580
f 580 628 629
f 580 629 581
f 581 629 630
f 581 630 582
f 582 630 631
f 582 631 583
f 583 631 632
f 583 632 584
f 584 632 633
f 584 633 585
f 585 633 634
f 585 634 586
f 586 634 635
f 586 635 587
f 587 635 636
f 587 636 588
f 588 636 637
f 588 637 589
f 589 637 638
f 589 638 590
f 590 638 639
f 590 639 591
f 591 639 640
f 591 640 592
f 592 640 641
f 592 641 593
f 593 641 642
f 593 642 594
f 594 642 643
f 594 643 595
f 595 643 644
f 595 644 596
f 596 644 645
f 596 645 597
f 597 645 646
f 597 646 598
f 598 646 647
f 598 647 599
f 599 647 648
f 599 648 600
f 600 648 649
f 600 649 601
f 601 649 650
f 601 650 602
f 602 650 651
f 602 651 603
f 603 651 652
f 603 652 604
f 604 652 653
f 604 653 605
f 605 653 654
f 605 654 606
f 606 654 655
f 606 655 607
f 607 655 656
f 607 656 608
f 608 656 657
f 608 657 609
f 609 657 658
f 609 658 610
f 610 658 659
f 610 659 611
f 611 659 660
f 611 660 612
f 612 660 661
f 612 661 613
f 613 661 662
f 613 662 614
f 614 662 663
f 614 663 615
f 615 663 664
f 615 664 616
f 616 664 665
f 616 665 617
f 617 665 666
f 617 666 618
f 618 666 667
f 618 667 619
f 619 667 668
f 619 668 620
f 620 668 669
f 620 669 621
f 621 669 670
f 621 670 622
f 622 670 671
f 622 671 623
f 623 671 672
f 623 672 624
f 624 672 625
f 624 625 577
f 625 673 674
f 625 674 626
f 626 674 675
f 626 675 627
f 627 675 676
f 627 676 628
f 628 676 677
f 628 677 629
f 629 677 678
f 629 678 630
f 630 678 679
f 630 679 631
f 631 679 680
f 631 680 632
f 632 680 681
f 632 681 633
f 633 681 682
f 633 682 634
f 634 682 683
f 634 683 635
f 635 683 684
f 635 684 636
f 636 684 685
f 636 685 637
f 637 685 686
f 637 686 638
f 638 686 687
f 638 687 639
f 639 687 688
f 639 688 640
f 640 688 689
f 640 689 641
f 641 689 690
f 641 690 642
f 642 690 691
f 642 691 643
f 643 691 692
f 643 692 644
f 644 692 693
f 644 693 645
f 645 693 694
f 645 694 646
f 646 694 695
f 646 695 647
f 647 695 696
f 647 696 648
f 648 696 697
f 648 697 649
f 649 697 698
f 649 698 650
f 650 698 699
f 650 699 651
f 651 699 700
f 651 700 652
f 652 700 701
f 652 701 653
f 653 701 702
f 653 702 654
f 654 702 703
f 654 703 655
f 655 703 704
f 655 704 656
f 656 704 705
f 656 705 657
f 657 705 706
f 657 706 658
f 658 706 707
f 658 707 659
f 659 707 708
f 659 708 660
f 660 708 709
f 660 709 661
f 661 709 710
f 661 710 662
f 662 710 711
f 662 711 663
f 663 711 712
f 663 712 664
f 664 712 713
f 664 713 665
f 665 713 714
f 665 714 666
f 666 714 715
f 666 715 667
f 667 715 716
f 667 716 668
f 668 716 717
f 668 717 669
f 669 717 718
f 669 718 670
f 670 718 719
f 670 719 671
f 671 719 720
f 671 720 672
f 672 720 673
f 672 673 625
f 673 721 722
f 673 722 674
f 674 722 723
f 674 723 675
f 675 723 724
f 675 724 676
f 676 724 725
f 676 725 677
f 677 725 726
f 677 726 678
f 678 726 727
f 678 727 679
f 679 727 728
f 679 728 680
f 680 728 729
f 680 729 681
f 681 729 730
f 681 730 682
f 682 730 731
f 682 731 683
f 683 731 732
f 683 732 684
f 684 732 733
f 684 733 685
f 685 733 734
f 685 734 686
f 686 734 735
f 686 735 687
f 687 735 736
f 687 736 688
f 688 736 737
f 688 737 689
f 689 737 738
f 689 738 690
f 690 738 739
f 690 739 691
f 691 739 740
f 691 740 692
f 692 740 741
f 692 741 693
f 693 741 742
f 693 742 694
f 694 742 743
f 694 743 695
f 695 743 744
f 695 744 696
f 696 744 745
f 696 745 697
f 697 745 746
f 697 746 698
f 698 746 747
f 698 747 699
f 699 747 748
f 699 748 700
f 700 748 749
f 700 749 701
f 701 749 750
f 701 750 702
f 702 750 751
f 702 751 703
f 703 751 752
f 703 752 704
f 704 752 753
f 704 753 705
f 705 753 754
f 705 754 706
f 706 754 755
f 706 755 707
f 707 755 756
f 707 756 708
f 708 756 757
f 708 757 709
f 709 757 758
f 709 758 710
f 710 758 759
f 710 759 711
f 711 759 760
f 711 760 712
f 712 760 761
f 712 761 713
f 713 761 762
f 713 762 714
f 714 762 763
f 714 763 715
f 715 763 764
f 715 764 716
f 716 764 765
f 716 765 717
f 717 765 766
f 717 766 718
f 718 766 767
f 718 767 719
f 719 767 768
f 719 768 720
f 720 768 721
f 720 721 673
f 721 769 770
f 721 770 722
f 722 770 771
f 722 771 723
f 723 771 772
f 723 772 724
f 724 772 773
f 724 773 725
f 725 773 774
f 725 774 726
f 726 774 775
f 726 775 727
f 727 775 776
f 727 776 728
f 728 776 777
f 728 777 729
f 729 777 778
f 729 778 730
f 730 778 779
f 730 779 731
f 731 779 780
f 731 780 732
f 732 780 781
f 732 781 733
f 733 781 782
f 733 782 734
f 734 782 783
f 734 783 735
f 735 783 784
f 735 784 736
f 736 784 785
f 736 785 737
f 737 785 786
f 737 786 738
f 738 786 787
f 738 787 739
f 739 787 788
f 739 788 740
f 740 788 789
f 740 789 741
f 741 789 790
f 741 790 742
f 742 790 791
f 742 791 743
f 743 791 792
f 743 792 744
f 744 792 793
f 744 793 745
f 745 793 794
f 745 794 746
f 746 794 795
f 746 795 747
f 747 795 796
f 747 796 748
f 748 796 797
f 748 797 749
f 749 797 798
f 749 798 750
f 750 798 799
f 750 799 751
f 751 799 800
f 751 800 752
f 752 800 801
f 752 801 753
f 753 801 802
f 753 802 754
f 754 802 803
f 754 803 755
f 755 803 804
f 755 804 756
f 756 804 805
f 756 805 757
f 757 805 806
f 757 806 758
f 758 806 807
f 758 807 759
f 759 807 808
f 759 808 760
f 760 808 809
f 760 809 761
f 761 809 810
f 761 810 762
f 762 810 811
f 762 811 763
f 763 811 812
f 763 812 764
f 764 812 813
f 764 813 765
f 765 813 814
f 765 814 766
f 766 814 815
f 766 815 767
f 767 815 816
f 767 816 768
f 768 816 769
f 768 769 721
f 769 817 818
f 769 818 770
f 770 818 819
f 770 819 771
f 771 819 820
f 771 820 772
f 772 820 821
f 772 821 773
f 773 821 822
f 773 822 774
f 774 822 823
f 774 823 775
f 775 823 824
f 775 824 776
f 776 824 825
f 776 825 777
f 777 825 826
f 777 826 778
f 778 826 827
f 778 827 779
f 779 827 828
f 779 828 780
f 780 828 829
f 780 829 781
f 781 829 830
f 781 830 782
f 782 830 831
f 782 831 783
f 783 831 832
f 783 832 784
f 784 832 833
f 784 833 785
f 785 833 834
f 785 834 786
f 786 834 835
f 786 835 787
f 787 835 836
f 787 836 788
f 788 836 837
f 788 837 789
f 789 837 838
f 789 838 790
f 790 838 839
f 790 839 791
f 791 839 840
f 791 840 792
f 792 840 841
f 792 841 793
f 793 841 842
f 793 842 794
f 794 842 843
f 794 843 795
f 795 843 844
f 795 844 796
f 796 844 845
f 796 845 797
f 797 845 846
f 797 846 798
f 798 846 847
f 798 847 799
f 799 847 848
f 799 848 800
f 800 848 849
f 800 849 801
f 801 849 850
f 801 850 802
f 802 850 851
f 802 851 803
f 803 851 852
f 803 852 804
f 804 852 853
f 804 853 805
f 805 853 854
f 805 854 806
f 806 854 855
f 806 855 807
f 807 855 856
f 807 856 808
f 808 856 857
f 808 857 809
f 809 857 858
f 809 858 810
f 810 858 859
f 810 859 811
f 811 859 860
f 811 860 812
f 812 860 861
f 812 861 813
f 813 861 862
f 813 862 814
f 814 862 863
f 814 863 815
f 815 863 864
f 815 864 816
f 816 864 817
f 816 817 769
f 817 865 866
f 817 866 818
f 818 866 867
f 818 867 819
f 819 867 868
f 819 868 820
f 820 868 869
f 820 869 821
f 821 869 870
f 821 870 822
f 822 870 871
f 822 871 823
f 823 871 872
f 823 872 824
f 824 872 873
f 824 873 825
f 825 873 874
f 825 874 826
f 826 874 875
f 826 875 827
f 827 875 876
f 827 876 828
f 828 876 877
f 828 877 829
f 829 877 878
f 829 878 830
f 830 878 879
f 830 879 831
f 831 879 880
f 831 880 832
f 832 880 881
f 832 881 833
f 833 881 882
f 833 882 834
f 834 882 883
f 834 883 835
f 835 883 884
f 835 884 836
f 836 884 885
f 836 885 837
f 837 885 886
f 837 886 838
f 838 886 887
f 838 887 839
f 839 887 888
f 839 888 840
f 840 888 889
f 840 889 841
f 841 889 890
f 841 890 842
f 842 890 891
f 842 891 843
f 843 891 892
f 843 892 844
f 844 892 893
f 844 893 845
f 845 893 894
f 845 894 846
f 846 894 895
f 846 895 847
f 847 895 896
f 847 896 848
f 848 896 897
f 848 897 849
f 849 897 898
f 849 898 850
f 850 898 899
f 850 899 851
f 851 899 900
f 851 900 852
f 852 900 901
f 852 901 853
f 853 901 902
f 853 902 854
f 854 902 903
f 854 903 855
f 855 903 904
f 855 904 856
f 856 904 905
f 856 905 857
f 857 905 906
f 857 906 858
f 858 906 907
f 858 907 859
f 859 907 908
f 859 908 860
f 860 908 909
f 860 909 861
f 861 909 910
f 861 910 862
f 862 910 911
f 862 911 863
f 863 911 912
f 863 912 864
f 864 912 865
f 864 865 817
