# Sample AFM tip: cone half-angle 15 deg, height 48 nm
# Load via afm-3d.html -> Import Tip .OBJ
o tip_cone_15deg
v 0.00000 0.00000 0.00000
v 12.86156 48.00000 0.00000
v 12.61443 48.00000 2.50917
v 11.88253 48.00000 4.92191
v 10.69400 48.00000 7.14550
v 9.09450 48.00000 9.09450
v 7.14550 48.00000 10.69400
v 4.92191 48.00000 11.88253
v 2.50917 48.00000 12.61443
v 0.00000 48.00000 12.86156
v -2.50917 48.00000 12.61443
v -4.92191 48.00000 11.88253
v -7.14550 48.00000 10.69400
v -9.09450 48.00000 9.09450
v -10.69400 48.00000 7.14550
v -11.88253 48.00000 4.92191
v -12.61443 48.00000 2.50917
v -12.86156 48.00000 0.00000
v -12.61443 48.00000 -2.50917
v -11.88253 48.00000 -4.92191
v -10.69400 48.00000 -7.14550
v -9.09450 48.00000 -9.09450
v -7.14550 48.00000 -10.69400
v -4.92191 48.00000 -11.88253
v -2.50917 48.00000 -12.61443
v -0.00000 48.00000 -12.86156
v 2.50917 48.00000 -12.61443
v 4.92191 48.00000 -11.88253
v 7.14550 48.00000 -10.69400
v 9.09450 48.00000 -9.09450
v 10.69400 48.00000 -7.14550
v 11.88253 48.00000 -4.92191
v 12.61443 48.00000 -2.50917
f 1 2 3
f 1 3 4
f 1 4 5
f 1 5 6
f 1 6 7
f 1 7 8
f 1 8 9
f 1 9 10
f 1 10 11
f 1 11 12
f 1 12 13
f 1 13 14
f 1 14 15
f 1 15 16
f 1 16 17
f 1 17 18
f 1 18 19
f 1 19 20
f 1 20 21
f 1 21 22
f 1 22 23
f 1 23 24
f 1 24 25
f 1 25 26
f 1 26 27
f 1 27 28
f 1 28 29
f 1 29 30
f 1 30 31
f 1 31 32
f 1 32 33
f 1 33 2
f 2 3 4
f 2 4 5
f 2 5 6
f 2 6 7
f 2 7 8
f 2 8 9
f 2 9 10
f 2 10 11
f 2 11 12
f 2 12 13
f 2 13 14
f 2 14 15
f 2 15 16
f 2 16 17
f 2 17 18
f 2 18 19
f 2 19 20
f 2 20 21
f 2 21 22
f 2 22 23
f 2 23 24
f 2 24 25
f 2 25 26
f 2 26 27
f 2 27 28
f 2 28 29
f 2 29 30
f 2 30 31
f 2 31 32
f 2 32 33
